<?xml version="1.0" encoding="utf-8"?>
<!-- Generator: Adobe Illustrator 22.1.0, SVG Export Plug-In . SVG Version: 6.00 Build 0)  -->
<svg version="1.1" id="Layer_1" xmlns="http://www.w3.org/2000/svg" xmlns:xlink="http://www.w3.org/1999/xlink" x="0px" y="0px"
	 viewBox="0 0 2286.2 292.6" style="enable-background:new 0 0 2286.2 292.6;" xml:space="preserve">
<style type="text/css">
	.st0{fill:#010101;}
	.st1{fill:url(#SVGID_1_);}
	.st2{fill:url(#SVGID_2_);}
	.st3{fill:url(#SVGID_3_);}
	.st4{fill:url(#SVGID_4_);}
	.st5{fill:url(#SVGID_5_);}
	.st6{fill:url(#SVGID_6_);}
	.st7{fill:url(#SVGID_7_);}
	.st8{fill:url(#SVGID_8_);}
	.st9{fill:url(#SVGID_9_);}
	.st10{fill:url(#SVGID_10_);}
	.st11{fill:url(#SVGID_11_);}
	.st12{fill:url(#SVGID_12_);}
	.st13{fill:#00A6D8;}
	.st14{fill:#FFFFFF;}
	.st15{fill:#F57E23;}
	.st16{fill:#EC2027;}
	.st17{fill:#00A64F;}
	.st18{fill:url(#SVGID_13_);}
	.st19{fill:url(#SVGID_14_);}
	.st20{fill:url(#SVGID_15_);}
	.st21{fill:url(#SVGID_16_);}
	.st22{fill:url(#SVGID_17_);}
	.st23{fill:url(#SVGID_18_);}
	.st24{fill:url(#SVGID_19_);}
	.st25{fill:url(#SVGID_20_);}
	.st26{fill:url(#SVGID_21_);}
	.st27{fill:url(#SVGID_22_);}
	.st28{fill:url(#SVGID_23_);}
	.st29{fill:url(#SVGID_24_);}
	.st30{fill:#231F20;}
	.st31{fill:url(#SVGID_25_);}
	.st32{fill:url(#SVGID_26_);}
	.st33{fill:url(#SVGID_27_);}
	.st34{fill:url(#SVGID_28_);}
	.st35{fill:url(#SVGID_29_);}
	.st36{fill:url(#SVGID_30_);}
	.st37{fill:url(#SVGID_31_);}
	.st38{fill:url(#SVGID_32_);}
	.st39{fill:url(#SVGID_33_);}
	.st40{fill:url(#SVGID_34_);}
	.st41{fill:url(#SVGID_35_);}
	.st42{fill:url(#SVGID_36_);}
	.st43{fill:url(#SVGID_37_);}
	.st44{fill:url(#SVGID_38_);}
	.st45{fill:url(#SVGID_39_);}
	.st46{fill:url(#SVGID_40_);}
	.st47{fill:url(#SVGID_41_);}
	.st48{fill:url(#SVGID_42_);}
	.st49{fill:url(#SVGID_43_);}
	.st50{fill:url(#SVGID_44_);}
	.st51{fill:url(#SVGID_45_);}
	.st52{fill:url(#SVGID_46_);}
	.st53{fill:url(#SVGID_47_);}
	.st54{fill:url(#SVGID_48_);}
	.st55{fill:url(#SVGID_49_);}
	.st56{fill:url(#SVGID_50_);}
	.st57{fill:url(#SVGID_51_);}
	.st58{fill:url(#SVGID_52_);}
	.st59{fill:#EF7723;}
	.st60{fill:#656664;}
	.st61{fill:#CECCCB;}
	.st62{fill:#A6A5A3;}
	.st63{fill:#F2F1F0;}
	.st64{fill:#63C4D8;}
	.st65{fill:#1DB8D1;}
	.st66{fill:#FCD28E;}
	.st67{fill:#F8B685;}
	.st68{fill:#F6AC1B;}
	.st69{fill:#A0D7E5;}
	.st70{fill:#FAC265;}
	.st71{fill:#A5A2A1;}
	.st72{fill:#949492;}
	.st73{fill:#C76728;}
	.st74{fill:#EE7924;}
	.st75{fill:#676868;}
	.st76{fill:#4C2E80;}
	.st77{fill:#0D68B2;}
	.st78{fill:none;}
	.st79{fill:none;stroke:#676868;stroke-width:0.5;stroke-miterlimit:10;}
	.st80{fill:#03A550;}
	.st81{fill:#0B9CD6;}
	.st82{fill:#F37F22;}
	.st83{fill:#EB2227;}
	.st84{fill:url(#SVGID_53_);}
	.st85{fill:url(#SVGID_54_);}
	.st86{fill:url(#SVGID_55_);}
	.st87{fill:url(#SVGID_56_);}
	.st88{fill:url(#SVGID_57_);}
	.st89{fill:url(#SVGID_58_);}
	.st90{fill:url(#SVGID_59_);}
	.st91{fill:url(#SVGID_60_);}
	.st92{fill:url(#SVGID_61_);}
	.st93{fill:url(#SVGID_62_);}
	.st94{fill:url(#SVGID_63_);}
	.st95{fill:url(#SVGID_64_);}
	.st96{opacity:0.9;}
	.st97{fill:#010101;stroke:#FFFFFF;stroke-miterlimit:10;}
	.st98{clip-path:url(#SVGID_66_);fill:#FFFFFF;}
	.st99{clip-path:url(#SVGID_66_);}
	.st100{fill:url(#SVGID_67_);}
	.st101{fill:url(#SVGID_68_);}
	.st102{fill:url(#SVGID_69_);}
	.st103{fill:url(#SVGID_70_);}
	.st104{fill:url(#SVGID_71_);}
	.st105{fill:url(#SVGID_72_);}
	.st106{fill:url(#SVGID_73_);}
	.st107{fill:url(#SVGID_74_);}
	.st108{fill:url(#SVGID_75_);}
	.st109{fill:url(#SVGID_76_);}
	.st110{fill:url(#SVGID_77_);}
	.st111{fill:url(#SVGID_78_);}
	.st112{fill:#949291;}
	.st113{fill:#EC7A25;}
	.st114{fill:url(#SVGID_79_);}
	.st115{fill:url(#SVGID_80_);}
	.st116{fill:url(#SVGID_81_);}
	.st117{fill:url(#SVGID_82_);}
	.st118{fill:url(#SVGID_83_);}
	.st119{fill:url(#SVGID_84_);}
	.st120{fill:url(#SVGID_85_);}
	.st121{fill:url(#SVGID_86_);}
	.st122{fill:url(#SVGID_87_);}
	.st123{fill:url(#SVGID_88_);}
	.st124{fill:url(#SVGID_89_);}
	.st125{fill:url(#SVGID_90_);}
	.st126{font-family:'HelveticaNeueLTStd-Lt';}
	.st127{font-size:6.639px;}
</style>
<rect x="-32.9" y="-15.5" class="st0" width="690.2" height="323.7"/>
<g>
	<g>
		<linearGradient id="SVGID_1_" gradientUnits="userSpaceOnUse" x1="311.5491" y1="169.724" x2="197.9571" y2="174.2981">
			<stop  offset="0" style="stop-color:#A6A6A6"/>
			<stop  offset="4.262738e-02" style="stop-color:#AAAAAA"/>
			<stop  offset="0.1573" style="stop-color:#B3B3B3"/>
			<stop  offset="0.1943" style="stop-color:#AEAEAE"/>
			<stop  offset="0.2938" style="stop-color:#A6A6A6"/>
			<stop  offset="0.4593" style="stop-color:#9A9A9A"/>
			<stop  offset="0.7082" style="stop-color:#909090"/>
			<stop  offset="1" style="stop-color:#8C8C8C"/>
		</linearGradient>
		<path class="st1" d="M188.4,124.6c4.4,0,8.8,0,13.2,0c0,28.7,0,57.3,0,86c5.2-0.5,10.4-1,15.5-1.5c0,4.2,0,8.3,0,12.5
			c-9.6,1-19.2,2.1-28.7,3.3C188.4,191.4,188.4,158,188.4,124.6z"/>
		<linearGradient id="SVGID_2_" gradientUnits="userSpaceOnUse" x1="311.5361" y1="169.4014" x2="197.9442" y2="173.9756">
			<stop  offset="0" style="stop-color:#A6A6A6"/>
			<stop  offset="4.262738e-02" style="stop-color:#AAAAAA"/>
			<stop  offset="0.1573" style="stop-color:#B3B3B3"/>
			<stop  offset="0.1943" style="stop-color:#AEAEAE"/>
			<stop  offset="0.2938" style="stop-color:#A6A6A6"/>
			<stop  offset="0.4593" style="stop-color:#9A9A9A"/>
			<stop  offset="0.7082" style="stop-color:#909090"/>
			<stop  offset="1" style="stop-color:#8C8C8C"/>
		</linearGradient>
		<path class="st2" d="M255.1,199.4c-4.9,0.3-9.7,1.1-14.6,1.5c-0.7,6.2-1.4,12.5-2.1,18.7c-4.4,0.4-8.8,0.8-13.2,1.2
			c3.7-32.4,7.3-64.4,11-96.2c7.8,0,15.7,0,23.5,0c3.5,31.2,7,62.1,10.5,92.8c-4.3,0.2-8.6,0.5-12.9,0.8
			C256.5,212.1,255.7,205.5,255.1,199.4z M242,188.6c3.9-0.2,7.7-1,11.6-1.2c-1.9-17-3.8-33.5-5.7-50.7
			C245.9,153.9,244,171.2,242,188.6z"/>
		<linearGradient id="SVGID_3_" gradientUnits="userSpaceOnUse" x1="311.5444" y1="169.6059" x2="197.9524" y2="174.1801">
			<stop  offset="0" style="stop-color:#A6A6A6"/>
			<stop  offset="4.262738e-02" style="stop-color:#AAAAAA"/>
			<stop  offset="0.1573" style="stop-color:#B3B3B3"/>
			<stop  offset="0.1943" style="stop-color:#AEAEAE"/>
			<stop  offset="0.2938" style="stop-color:#A6A6A6"/>
			<stop  offset="0.4593" style="stop-color:#9A9A9A"/>
			<stop  offset="0.7082" style="stop-color:#909090"/>
			<stop  offset="1" style="stop-color:#8C8C8C"/>
		</linearGradient>
		<path class="st3" d="M294.7,124.6c0,26.7,0,53.3-0.1,80c3.7-0.1,7.5-0.2,11.2-0.3c0-26.6,0-53.1,0-79.7c4.4,0,8.8,0,13.2,0
			c0,27.8,0,55.7,0,83.5c0,4.2-4,7.7-8.8,7.8c-6.7,0.1-13.3,0.3-20,0.6c-4.7,0.2-8.8-3.2-8.8-7.4c0-28.2,0.1-56.3,0.1-84.5
			C285.8,124.6,290.2,124.6,294.7,124.6z"/>
		<linearGradient id="SVGID_4_" gradientUnits="userSpaceOnUse" x1="340.9789" y1="169.4271" x2="431.7" y2="174.0013">
			<stop  offset="0" style="stop-color:#A6A6A6"/>
			<stop  offset="4.262738e-02" style="stop-color:#AAAAAA"/>
			<stop  offset="0.1573" style="stop-color:#B3B3B3"/>
			<stop  offset="0.1943" style="stop-color:#AEAEAE"/>
			<stop  offset="0.2938" style="stop-color:#A6A6A6"/>
			<stop  offset="0.4593" style="stop-color:#9A9A9A"/>
			<stop  offset="0.7082" style="stop-color:#909090"/>
			<stop  offset="1" style="stop-color:#8C8C8C"/>
		</linearGradient>
		<path class="st4" d="M349.9,124.6c4.2,15.1,8.4,30.3,12.7,45.5c0-15.2,0-30.3,0-45.5c4.4,0,8.8,0,13.2,0c0,30.6,0.1,61.3,0.1,91.9
			c-5.2-0.2-10.4-0.3-15.6-0.5c-4.4-16.5-8.8-32.9-13.3-49.2c0,16.3,0,32.7,0,49c-4.4-0.1-8.8-0.1-13.3-0.1c0-30.4,0-60.7,0-91.1
			C339.1,124.6,344.5,124.6,349.9,124.6z"/>
		<linearGradient id="SVGID_5_" gradientUnits="userSpaceOnUse" x1="341.0623" y1="167.7716" x2="431.7835" y2="172.3458">
			<stop  offset="0" style="stop-color:#A6A6A6"/>
			<stop  offset="4.262738e-02" style="stop-color:#AAAAAA"/>
			<stop  offset="0.1573" style="stop-color:#B3B3B3"/>
			<stop  offset="0.1943" style="stop-color:#AEAEAE"/>
			<stop  offset="0.2938" style="stop-color:#A6A6A6"/>
			<stop  offset="0.4593" style="stop-color:#9A9A9A"/>
			<stop  offset="0.7082" style="stop-color:#909090"/>
			<stop  offset="1" style="stop-color:#8C8C8C"/>
		</linearGradient>
		<path class="st5" d="M414.9,152c0-5.4,0-9.9,0-15.3c-3.7,0-7.4-0.1-11.2-0.1c0,23.1,0.1,46.2,0.1,69.3c3.7,0.2,7.4,0.4,11.2,0.6
			c0-5.4,0-13.5,0-19c4.4,0.2,8.8,1.1,13.2,1.4c0,6.9,0,15.8,0,22.7c0,4.4-4,7.7-8.8,7.3c-6.7-0.5-13.3-0.9-20-1.3
			c-4.7-0.3-8.8-4-8.8-8.3c0-25.6-0.1-51.2-0.1-76.8c0-4.2,4.1-7.9,8.8-7.9c6.7,0,13.3,0,20,0c5,0,8.8,3.8,8.8,8.1
			c0,6.8,0,13.6,0,20.4C428.1,153.1,418.4,152.3,414.9,152z"/>
		<linearGradient id="SVGID_6_" gradientUnits="userSpaceOnUse" x1="341.0629" y1="167.7602" x2="431.7841" y2="172.3344">
			<stop  offset="0" style="stop-color:#A6A6A6"/>
			<stop  offset="4.262738e-02" style="stop-color:#AAAAAA"/>
			<stop  offset="0.1573" style="stop-color:#B3B3B3"/>
			<stop  offset="0.1943" style="stop-color:#AEAEAE"/>
			<stop  offset="0.2938" style="stop-color:#A6A6A6"/>
			<stop  offset="0.4593" style="stop-color:#9A9A9A"/>
			<stop  offset="0.7082" style="stop-color:#909090"/>
			<stop  offset="1" style="stop-color:#8C8C8C"/>
		</linearGradient>
		<path class="st6" d="M440.7,124.6c4.4,0,8.8,0,13.2,0c0,15,0,48.6,0,63.6c3.7,0.2,7.4,1.4,11.2,1.6c0-15.2,0-50,0-65.1
			c4.4,0,8.8,0,13.2,0c0,33.4,0,66.8,0,100.2c-4.4-0.6-8.8-1.1-13.2-1.6c0-13.5,0-7.4,0-20.8c-3.7-0.3-7.4-1.5-11.2-1.7
			c0,13.3,0,8,0,21.3c-4.4-0.5-8.8-0.9-13.2-1.3C440.8,188.6,440.8,156.6,440.7,124.6z"/>
	</g>
	<g>
		<g>
			<g>
				<linearGradient id="SVGID_7_" gradientUnits="userSpaceOnUse" x1="185.8627" y1="45.6149" x2="356.6318" y2="120.3264">
					<stop  offset="0" style="stop-color:#A6A6A6"/>
					<stop  offset="4.262738e-02" style="stop-color:#AAAAAA"/>
					<stop  offset="0.1573" style="stop-color:#B3B3B3"/>
					<stop  offset="0.1943" style="stop-color:#AEAEAE"/>
					<stop  offset="0.2938" style="stop-color:#A6A6A6"/>
					<stop  offset="0.4593" style="stop-color:#9A9A9A"/>
					<stop  offset="0.7082" style="stop-color:#909090"/>
					<stop  offset="1" style="stop-color:#8C8C8C"/>
				</linearGradient>
				<path class="st7" d="M274,70.7h23.2l-2.2,8.9h-11.1l-1.1,4.7h11.6l-2,8.3h-11.4l-2.7,11.7h-12L274,70.7z"/>
				<linearGradient id="SVGID_8_" gradientUnits="userSpaceOnUse" x1="189.1914" y1="38.0064" x2="359.9606" y2="112.7179">
					<stop  offset="0" style="stop-color:#A6A6A6"/>
					<stop  offset="4.262738e-02" style="stop-color:#AAAAAA"/>
					<stop  offset="0.1573" style="stop-color:#B3B3B3"/>
					<stop  offset="0.1943" style="stop-color:#AEAEAE"/>
					<stop  offset="0.2938" style="stop-color:#A6A6A6"/>
					<stop  offset="0.4593" style="stop-color:#9A9A9A"/>
					<stop  offset="0.7082" style="stop-color:#909090"/>
					<stop  offset="1" style="stop-color:#8C8C8C"/>
				</linearGradient>
				<path class="st8" d="M300.3,70.7h12l-7.8,33.6h-12L300.3,70.7z"/>
				<linearGradient id="SVGID_9_" gradientUnits="userSpaceOnUse" x1="192.2937" y1="30.9153" x2="363.0629" y2="105.6268">
					<stop  offset="0" style="stop-color:#A6A6A6"/>
					<stop  offset="4.262738e-02" style="stop-color:#AAAAAA"/>
					<stop  offset="0.1573" style="stop-color:#B3B3B3"/>
					<stop  offset="0.1943" style="stop-color:#AEAEAE"/>
					<stop  offset="0.2938" style="stop-color:#A6A6A6"/>
					<stop  offset="0.4593" style="stop-color:#9A9A9A"/>
					<stop  offset="0.7082" style="stop-color:#909090"/>
					<stop  offset="1" style="stop-color:#8C8C8C"/>
				</linearGradient>
				<path class="st9" d="M315.4,70.9l0.8-0.1c3.8-0.5,8.6-0.8,11.3-0.8c4.4,0,7.8,0.5,10.4,1.6c3.3,1.4,5.3,4.3,5.3,7.9
					c0,3.1-1,6-3,8.3c-1.7,2-3.2,2.9-6.4,3.9l-0.8,0.3c0.3,0.3,0.4,0.4,0.6,0.5c0.9,1.1,3.7,6.5,6.1,11.9h-13.2
					c-1.7-4.8-2.2-6-4.4-11.5l-2.6,11.5h-11.6L315.4,70.9z M324.3,86.8c3.8,0,6.5-2.3,6.5-5.5c0-1.7-1.3-2.6-3.7-2.6
					c-0.7,0-1.1,0.1-1.9,0.2l-1.8,7.8C323.8,86.7,323.8,86.8,324.3,86.8z"/>
				<linearGradient id="SVGID_10_" gradientUnits="userSpaceOnUse" x1="202.6832" y1="7.168" x2="373.4524" y2="81.8795">
					<stop  offset="0" style="stop-color:#A6A6A6"/>
					<stop  offset="4.262738e-02" style="stop-color:#AAAAAA"/>
					<stop  offset="0.1573" style="stop-color:#B3B3B3"/>
					<stop  offset="0.1943" style="stop-color:#AEAEAE"/>
					<stop  offset="0.2938" style="stop-color:#A6A6A6"/>
					<stop  offset="0.4593" style="stop-color:#9A9A9A"/>
					<stop  offset="0.7082" style="stop-color:#909090"/>
					<stop  offset="1" style="stop-color:#8C8C8C"/>
				</linearGradient>
				<path class="st10" d="M371.5,70.7h29l-2,9.7h-8.6l-5.7,23.9h-12l5.7-23.9h-9.3L371.5,70.7z"/>
				<linearGradient id="SVGID_11_" gradientUnits="userSpaceOnUse" x1="198.1906" y1="17.4367" x2="368.9598" y2="92.1482">
					<stop  offset="0" style="stop-color:#A6A6A6"/>
					<stop  offset="4.262738e-02" style="stop-color:#AAAAAA"/>
					<stop  offset="0.1573" style="stop-color:#B3B3B3"/>
					<stop  offset="0.1943" style="stop-color:#AEAEAE"/>
					<stop  offset="0.2938" style="stop-color:#A6A6A6"/>
					<stop  offset="0.4593" style="stop-color:#9A9A9A"/>
					<stop  offset="0.7082" style="stop-color:#909090"/>
					<stop  offset="1" style="stop-color:#8C8C8C"/>
				</linearGradient>
				<path class="st11" d="M389.8,98.3c1.6,0,2.9,1.3,2.9,2.9c0,1.6-1.3,2.9-2.9,2.9c-1.6,0-2.9-1.3-2.9-2.9
					C386.9,99.6,388.2,98.3,389.8,98.3z M389.8,103.8c1.4,0,2.6-1.1,2.6-2.6c0-1.4-1.1-2.6-2.6-2.6c-1.4,0-2.6,1.1-2.6,2.6
					C387.2,102.7,388.4,103.8,389.8,103.8z M388.7,99.8c0.1,0,0.2,0,0.5,0c0.3,0,0.4,0,0.5,0c1,0,1.4,0.4,1.4,1.1
					c0,0.4-0.2,0.7-0.6,0.8l0,0c0,0,0,0,0.1,0.1c0.1,0.1,0.4,0.6,0.7,1.1h-1.1c-0.2-0.4-0.3-0.5-0.6-1v1h-0.9V99.8z M389.7,101.2
					c0.3,0,0.4-0.1,0.4-0.4c0-0.2-0.1-0.4-0.4-0.4c-0.1,0-0.1,0-0.1,0v0.7C389.7,101.2,389.7,101.2,389.7,101.2z"/>
				<g>
					<linearGradient id="SVGID_12_" gradientUnits="userSpaceOnUse" x1="197.7184" y1="18.5161" x2="368.4875" y2="93.2276">
						<stop  offset="0" style="stop-color:#A6A6A6"/>
						<stop  offset="4.262738e-02" style="stop-color:#AAAAAA"/>
						<stop  offset="0.1573" style="stop-color:#B3B3B3"/>
						<stop  offset="0.1943" style="stop-color:#AEAEAE"/>
						<stop  offset="0.2938" style="stop-color:#A6A6A6"/>
						<stop  offset="0.4593" style="stop-color:#9A9A9A"/>
						<stop  offset="0.7082" style="stop-color:#909090"/>
						<stop  offset="1" style="stop-color:#8C8C8C"/>
					</linearGradient>
					<path class="st12" d="M340.8,103.5c3.4,1,7,1.6,10.5,1.6c4.7,0,8.2-1.1,11.3-3.3c3.4-2.4,5.6-6.1,5.6-9.5c0-2.3-1-4.3-2.7-5.8
						c-1.4-1.1-2.8-2-5.7-3.3l-2.4-1.1c-0.8-0.4-1.2-0.8-1.2-1.3c0-1.2,1.5-2.1,3.6-2.1c1.6,0,3.4,0.5,7,1.6l2.5-9.1
						c-2.7-0.7-5.2-1.1-7.8-1.1c-9.8,0-17.3,5.3-17.3,12.2c0,3.6,2.4,6.2,8.5,9c2.9,1.3,3.3,1.7,3.3,2.6c0,1.4-1.5,2.2-3.9,2.2
						c-2.1,0-4.9-0.7-8.6-2l0,0L340.8,103.5z"/>
				</g>
			</g>
		</g>
	</g>
</g>
<g class="st96">
	<circle class="st14" cx="611.2" cy="79.8" r="2.3"/>
	<circle class="st14" cx="15.2" cy="193.5" r="2.5"/>
	<circle class="st14" cx="717.7" cy="89.9" r="2.5"/>
	<circle class="st14" cx="206.9" cy="52.1" r="5"/>
	<circle class="st14" cx="671.7" cy="221.8" r="5"/>
	<circle class="st14" cx="685.4" cy="77.6" r="2.5"/>
	<circle class="st14" cx="451.2" cy="61.7" r="1.6"/>
	<circle class="st14" cx="687.6" cy="205.3" r="1.6"/>
	<circle class="st14" cx="607.6" cy="86.7" r="0.8"/>
	<circle class="st14" cx="79.9" cy="95.4" r="2.3"/>
	<circle class="st14" cx="211.2" cy="66.8" r="1.6"/>
	<circle class="st14" cx="97.7" cy="102.3" r="0.8"/>
	<circle class="st14" cx="689.7" cy="232.2" r="0.8"/>
	<circle class="st14" cx="500.1" cy="82" r="0.9"/>
	<circle class="st14" cx="263.2" cy="33.4" r="0.8"/>
	<circle class="st14" cx="5.6" cy="85" r="0.7"/>
	<circle class="st14" cx="12.2" cy="49.1" r="0.9"/>
	<circle class="st14" cx="48.4" cy="32.6" r="2.5"/>
	<circle class="st14" cx="752.4" cy="248.1" r="0.9"/>
	<circle class="st14" cx="22.1" cy="232.8" r="0.9"/>
	<circle class="st14" cx="661.4" cy="135.4" r="0.9"/>
	<circle class="st14" cx="16" cy="129.8" r="0.9"/>
	<circle class="st14" cx="120.3" cy="151.2" r="0.9"/>
	<circle class="st14" cx="582.8" cy="212.4" r="0.9"/>
	<circle class="st14" cx="637.1" cy="121.8" r="0.8"/>
	<circle class="st14" cx="512.7" cy="85.4" r="0.9"/>
	<circle class="st14" cx="32.2" cy="139.2" r="0.9"/>
	<circle class="st14" cx="30.6" cy="221" r="0.9"/>
	<circle class="st14" cx="645.8" cy="141.5" r="0.9"/>
	<circle class="st14" cx="573.5" cy="204" r="6.1"/>
	<circle class="st14" cx="96.9" cy="200.8" r="6.1"/>
</g>
<rect x="626.8" y="-15.5" class="st0" width="1689.4" height="323.7"/>
<g>
	<g>
		<g>
			<path class="st59" d="M933.4,184.9c0,0.3-0.1,0.5-0.3,0.7c-0.2,0.2-0.5,0.3-0.9,0.3c-0.3,0-0.7-0.1-1.1-0.2l0.2-0.7l0,0
				c0.4,0.1,0.6,0.2,0.8,0.2c0.2,0,0.4-0.1,0.4-0.2c0-0.1,0-0.1-0.1-0.2c-0.1-0.1-0.2-0.1-0.4-0.2c-0.3-0.2-0.5-0.3-0.7-0.4
				c-0.1-0.1-0.2-0.3-0.2-0.5c0-0.3,0.1-0.5,0.3-0.7c0.2-0.2,0.5-0.3,0.8-0.3c0.3,0,0.7,0.1,1,0.2l-0.2,0.6l0,0
				c-0.4-0.1-0.6-0.2-0.7-0.2c-0.1,0-0.2,0-0.2,0.1c-0.1,0-0.1,0.1-0.1,0.2c0,0.1,0.1,0.2,0.4,0.4c0.3,0.1,0.5,0.3,0.7,0.4
				C933.3,184.5,933.4,184.6,933.4,184.9z"/>
			<path class="st59" d="M937.6,185.8h-0.8l-0.2-1.9l-0.8,1.6h-0.5l-0.8-1.6l-0.2,1.9h-0.8l0.4-3.1h0.7l0.8,1.8l0.8-1.8h0.7
				L937.6,185.8z"/>
		</g>
		<g>
			<path class="st59" d="M812.3,186.2h-8.9l-1.9-21.6l-8.8,18.6h-5.4l-8.5-18.6l-2.3,21.6H768l4.4-34.7h8.4l9.5,20.3l9.5-20.3h8.4
				L812.3,186.2z"/>
			<path class="st59" d="M892.3,168.9c0,5.3-1.8,9.6-5.3,13c-3.5,3.4-8.1,5-13.7,5c-5.5,0-10.1-1.7-13.7-5
				c-3.6-3.3-5.4-7.5-5.4-12.6c0-5.4,1.8-9.8,5.3-13.3c3.5-3.5,8.1-5.2,13.6-5.2c5.6,0,10.2,1.7,13.8,5.1
				C890.5,159.3,892.3,163.6,892.3,168.9z M882.9,168.8c0-2.8-0.9-5.1-2.7-6.9c-1.8-1.8-4.1-2.7-6.9-2.7c-2.7,0-5,0.9-6.8,2.7
				c-1.8,1.8-2.7,4.1-2.7,6.8c0,2.8,0.9,5.2,2.7,7c1.8,1.8,4.1,2.8,6.9,2.8c2.8,0,5.1-0.9,6.9-2.7C882,174,882.9,171.6,882.9,168.8z
				"/>
			<path class="st59" d="M930.5,186.2h-8.1l-17.4-21.7v21.7h-8.6v-34.7h8.3l17.2,21.7v-21.7h8.6V186.2z"/>
		</g>
		<g>
			<path class="st59" d="M813.9,146.7h-8.3l-1.8-20.2l-8.2,17.4h-5l-8-17.4l-2.1,20.2h-7.9l4.1-32.4h7.9l8.8,18.9l8.8-18.9h7.8
				L813.9,146.7z"/>
			<path class="st59" d="M825.3,116c0,1.3-0.4,2.3-1.3,3.2c-0.9,0.9-1.9,1.3-3.2,1.3c-1.2,0-2.3-0.4-3.2-1.3
				c-0.9-0.9-1.3-1.9-1.3-3.1c0-1.3,0.4-2.4,1.3-3.3c0.9-0.9,1.9-1.3,3.2-1.3c1.3,0,2.4,0.4,3.2,1.3
				C824.9,113.7,825.3,114.8,825.3,116z M824.5,146.7H817v-22.4l7.5-1.6V146.7z"/>
			<path class="st59" d="M845.8,140.1c0,2.1-0.9,3.8-2.6,5.2c-1.7,1.3-3.9,2-6.5,2c-2.6,0-5.8-0.7-9.6-2l1.8-5.3l0.5,0.2
				c3,1.4,5.2,2,6.7,2c0.7,0,1.3-0.2,1.8-0.5c0.5-0.3,0.7-0.8,0.7-1.3c0-0.3-0.1-0.6-0.4-1c-0.5-0.6-1.9-1.4-4.2-2.5
				c-2.3-1.1-4-2.2-5-3.3c-1-1.1-1.5-2.4-1.5-3.9c0-2.1,0.9-3.8,2.7-5.2c1.8-1.4,4-2.1,6.7-2.1c1.4,0,4,0.6,8,1.7l0.3,0.1l-1.8,5.2
				c-2.6-1.3-4.7-1.9-6.5-1.9c-1.5,0-2.3,0.5-2.3,1.6c0,0.8,1.1,1.7,3.2,2.6C843.2,134.1,845.8,136.8,845.8,140.1z"/>
			<path class="st59" d="M865.5,140.1c0,2.1-0.9,3.8-2.6,5.2c-1.7,1.3-3.9,2-6.5,2c-2.6,0-5.8-0.7-9.6-2l1.8-5.3l0.5,0.2
				c3,1.4,5.2,2,6.7,2c0.7,0,1.3-0.2,1.8-0.5c0.5-0.3,0.7-0.8,0.7-1.3c0-0.3-0.1-0.6-0.4-1c-0.5-0.6-1.9-1.4-4.2-2.5
				c-2.3-1.1-4-2.2-5-3.3c-1-1.1-1.5-2.4-1.5-3.9c0-2.1,0.9-3.8,2.7-5.2c1.8-1.4,4-2.1,6.7-2.1c1.4,0,4,0.6,8,1.7l0.3,0.1l-1.8,5.2
				c-2.6-1.3-4.7-1.9-6.5-1.9c-1.5,0-2.3,0.5-2.3,1.6c0,0.8,1.1,1.7,3.2,2.6C862.9,134.1,865.5,136.8,865.5,140.1z"/>
			<path class="st59" d="M875.7,146.5h-7.5v-22.4l7.5-1.6V146.5z"/>
			<path class="st59" d="M905.6,135.1c0,3.6-1.2,6.5-3.7,8.8c-2.4,2.3-5.6,3.4-9.4,3.4c-4.1,0-7.4-1.1-9.8-3.4
				c-2.5-2.2-3.7-5.2-3.7-8.9c0-3.7,1.2-6.8,3.7-9.1c2.5-2.3,5.7-3.5,9.6-3.5c3.9,0,7,1.2,9.5,3.5
				C904.4,128.4,905.6,131.4,905.6,135.1z M897.8,135c0-1.8-0.5-3.3-1.5-4.5c-1-1.1-2.3-1.7-3.9-1.7c-1.6,0-2.9,0.6-4,1.7
				c-1.1,1.2-1.6,2.6-1.6,4.4c0,1.8,0.5,3.2,1.5,4.4c1,1.1,2.3,1.7,3.9,1.7c1.7,0,3-0.5,4.1-1.6C897.3,138.3,897.8,136.8,897.8,135z
				"/>
			<path class="st59" d="M931.5,138.6c0,3.4-0.1,6-0.3,7.8v0.2h-7.6l0-0.7c0.2-2.7,0.3-5.2,0.3-7.5c0-3.4-0.2-5.9-0.7-7.3
				c-0.5-1.4-1.3-2.1-2.5-2.1c-1.6,0-3,0.8-4.3,2.4v15.2h-7.6v-22.4l7.3-1.6v3.2c2.7-2.2,5.3-3.2,7.7-3.2c2.8,0,4.8,1.3,6.1,3.9
				C931,128.7,931.5,132.7,931.5,138.6z"/>
		</g>
		<g>
			<g>
				<path class="st60" d="M849.3,152.3c-2.3-2.3-5.3-3.9-8.4-5c1.8,0.9,3.5,2.1,5,3.6c4.4,4.3,7,10.2,7,16.2c0,2.9-0.6,5.8-1.8,8.6
					c-1,2.2-2.4,4.7-4,6.5c-2.2,2.4-4.9,4.3-7.9,5.4c-3.5,1.3-7.1,1.9-10.8,1.4c-1.7-0.3-3.3-0.7-4.9-1.2c2.6,1.3,5.4,2.2,8.3,2.6
					c3.7,0.6,7.3,0,10.8-1.4c3-1.2,5.8-3.1,7.9-5.4c1.6-1.8,3-4.3,4-6.5c1.3-2.8,1.8-5.7,1.8-8.6
					C856.3,162.5,853.7,156.6,849.3,152.3z"/>
				<path class="st61" d="M839.1,187.6c3-1.2,5.8-3.1,7.9-5.4c1.6-1.8,3-4.3,4-6.5c1.3-2.8,1.8-5.7,1.8-8.6c0-6-2.6-11.9-7-16.2
					c-1.5-1.4-3.2-2.6-5-3.6c-1.1-0.4-2.2-0.6-3.3-0.8c-2.3-0.4-4.7-0.3-7,0.2c-2.5,0.5-5.3,1.4-7.6,2.6c-2.7,1.5-5.1,3.6-6.9,6.1
					c-3.5,4.8-4.4,10.4-3.8,16.2c0.2,2,0.7,3.9,1.4,5.8c0.6,1.5,1.4,2.9,2.3,4.2c1.9,2.7,4.5,4.7,7.3,6.1c1.6,0.5,3.3,0.9,4.9,1.2
					C832,189.5,835.7,188.9,839.1,187.6z"/>
				<path class="st62" d="M821.8,173.2c0.4,1,0,2.1-1,2.5c-1,0.4-2.1,0-2.5-1c-0.4-1,0-2.1,1-2.5
					C820.3,171.8,821.4,172.2,821.8,173.2z"/>
				<path class="st62" d="M847.3,162.6c0.4,1,0,2.1-1,2.5c-1,0.4-2.1,0-2.5-1c-0.4-1,0-2.1,1-2.5
					C845.7,161.2,846.8,161.6,847.3,162.6z"/>
				<g>
					<path class="st60" d="M822.1,168.4c0.4,0.8,0,1.8-0.8,2.1c-0.8,0.4-1.8,0-2.1-0.8c-0.4-0.8,0-1.8,0.8-2.1
						C820.7,167.2,821.7,167.5,822.1,168.4z"/>
					<path class="st60" d="M842.6,159.8c0.4,0.8,0,1.8-0.8,2.1c-0.8,0.4-1.8,0-2.1-0.8c-0.4-0.8,0-1.8,0.8-2.1
						C841.3,158.6,842.3,159,842.6,159.8z"/>
					<g>
						<g>
							<path class="st60" d="M826.1,165c-0.1,0.8-0.5,1.7-1.1,2.3c-0.4,0.5,0.4,1.1,0.8,0.6c0.7-0.8,1.1-1.8,1.3-2.8
								C827.2,164.4,826.2,164.3,826.1,165L826.1,165z"/>
						</g>
						<g>
							<path class="st60" d="M834.4,161.9c0.8,0.6,1.9,1.3,2.9,1.3c0.7,0,0.8-1,0.1-1c-0.9,0-1.8-0.6-2.4-1.1
								C834.5,160.7,833.8,161.5,834.4,161.9L834.4,161.9z"/>
						</g>
						<g>
							<path class="st60" d="M826,166.9c1.2,0.5,2.6,0.7,3.9,0.6c3-0.2,5.2-2.4,6.5-4.9c0.3-0.6-0.7-1-1-0.4
								c-1.2,2.4-3.1,4.1-5.9,4.3c-1.1,0.1-2.2-0.1-3.2-0.6C825.8,165.6,825.4,166.6,826,166.9L826,166.9z"/>
						</g>
					</g>
				</g>
				<g>
					<g>
						<path class="st62" d="M817,165.3c-0.3-0.7-0.6-1.5-0.1-2.2c0.1-0.2,0.3-0.4,0.4-0.5c0.3-0.3,0.4-0.4,0.2-0.7
							c-0.1-0.2-0.1-0.4,0.1-0.5c0.2-0.1,0.4-0.1,0.5,0.1c0.5,0.8,0.1,1.3-0.3,1.6c-0.1,0.1-0.2,0.2-0.3,0.4
							c-0.3,0.4-0.1,0.9,0.2,1.5L817,165.3z"/>
						<path class="st62" d="M814.8,167.5c-0.2,0-0.3-0.1-0.4-0.3c-0.1-0.2,0.1-0.4,0.3-0.5c0.2-0.1,0.4-0.1,0.4-0.3
							c0.1-0.2-0.1-0.7-0.2-1.2c0-0.1-0.1-0.2-0.1-0.3c-0.4-1.1-0.3-1.3,0.6-1.9l0,0c0.2-0.1,0.4-0.1,0.5,0.1
							c0.1,0.2,0.1,0.4-0.1,0.5l0,0c-0.6,0.4-0.6,0.4-0.3,1.1c0,0.1,0.1,0.2,0.1,0.3c0.2,0.6,0.5,1.3,0.2,1.8
							C815.7,167.2,815.4,167.4,814.8,167.5C814.9,167.5,814.9,167.5,814.8,167.5z"/>
						<path class="st62" d="M816.2,161.8c-0.1,0-0.3-0.1-0.3-0.2c-0.9-1.6-0.2-2.3,0.9-3c0.2-0.1,0.6-0.4,0.7-0.6c0,0,0-0.1-0.1-0.3
							c-0.1-0.2-0.1-0.4,0.1-0.5c0.2-0.1,0.4-0.1,0.5,0.1c0.2,0.3,0.3,0.6,0.2,0.9c-0.1,0.5-0.7,0.9-1,1.1c-1.1,0.7-1.3,1-0.7,2
							c0.1,0.2,0,0.4-0.1,0.5C816.4,161.8,816.3,161.8,816.2,161.8z"/>
						<path class="st62" d="M818.7,160.4c-0.2,0-0.4-0.2-0.4-0.4c-0.1-1.2,0.7-1.7,1.4-2.2c0.6-0.4,1-0.7,0.9-1.2
							c0-0.2,0.1-0.4,0.3-0.4c0.2,0,0.4,0.1,0.4,0.3c0.1,1.1-0.7,1.5-1.3,1.9c-0.7,0.4-1.1,0.7-1,1.4
							C819.1,160.2,819,160.4,818.7,160.4C818.8,160.4,818.7,160.4,818.7,160.4z"/>
						<path class="st62" d="M818.5,156.3c-0.2,0-0.3-0.1-0.4-0.3c0-0.2,0.1-0.4,0.3-0.5c0.9-0.2,1.2-0.7,1.6-1.6
							c0.4-0.8,0.8-1.1,1.6-1.5c0.2-0.1,0.4,0,0.5,0.2c0.1,0.2,0,0.4-0.2,0.5c-0.6,0.3-0.9,0.5-1.2,1.1
							C820.3,155.2,819.9,156.1,818.5,156.3C818.6,156.3,818.6,156.3,818.5,156.3z"/>
					</g>
				</g>
				<path class="st63" d="M831.7,156.2c-0.3-0.5-1.1-0.6-1.8-0.2c-0.7,0.4-1,1.1-0.7,1.7c0.3,0.5,1.1,0.6,1.8,0.2
					C831.7,157.4,832,156.7,831.7,156.2z"/>
				<path class="st63" d="M849.1,169.5c-0.4-0.7-1.6-0.9-2.5-0.3c-1,0.6-1.4,1.6-1,2.4c0.4,0.7,1.6,0.9,2.5,0.3
					C849.1,171.2,849.5,170.2,849.1,169.5z"/>
				<path class="st63" d="M827.9,176.7c-0.3-0.5-1.1-0.6-1.8-0.2c-0.7,0.4-1,1.2-0.7,1.7c0.3,0.5,1.1,0.6,1.8,0.2
					C827.9,178,828.2,177.2,827.9,176.7z"/>
				<path class="st63" d="M840.9,175.8c0.8-0.8,0.8-1.9,0.1-2.4c-0.7-0.5-2-0.3-2.7,0.5c-0.8,0.8-0.8,1.9-0.1,2.4
					C838.9,176.8,840.1,176.6,840.9,175.8z"/>
				<path class="st63" d="M837.3,150.4c-0.6-1-2.1-1.2-3.5-0.4c-1.3,0.8-1.9,2.2-1.3,3.2c0.6,1,2.1,1.2,3.5,0.4
					C837.3,152.8,837.9,151.4,837.3,150.4z"/>
				<path class="st63" d="M832.2,180.7c-0.6-1-2.1-1.2-3.5-0.4c-1.3,0.8-1.9,2.2-1.3,3.2c0.6,1,2.1,1.2,3.5,0.4
					C832.2,183.1,832.8,181.7,832.2,180.7z"/>
				<path class="st63" d="M829.7,153c0.4-0.4,0.5-1,0.1-1.3c-0.4-0.3-1.1-0.2-1.5,0.3c-0.4,0.4-0.5,1-0.1,1.3
					C828.6,153.6,829.3,153.5,829.7,153z"/>
				<path class="st63" d="M846,177.7c0.4-0.4,0.5-1,0.1-1.3c-0.4-0.3-1.1-0.2-1.5,0.3c-0.4,0.4-0.5,1-0.1,1.3
					C844.8,178.2,845.5,178.1,846,177.7z"/>
				<path class="st63" d="M824.9,182.8c0.4-0.4,0.5-1,0.1-1.3c-0.4-0.3-1.1-0.2-1.5,0.3c-0.4,0.4-0.5,1-0.1,1.3
					C823.8,183.3,824.5,183.2,824.9,182.8z"/>
			</g>
		</g>
		<polygon class="st64" points="789.9,188.5 790.4,185.8 791.4,187.8 794,187.8 792.5,188.9 793.2,190.7 791.4,189.7 790.5,191.4 
			789.9,189.7 788.1,188.6 		"/>
		<polygon class="st65" points="908.8,178.6 909.2,176 910.2,178 912.8,178 911.3,179.1 912,180.9 910.2,179.8 909.3,181.6 
			908.8,179.8 906.9,178.8 		"/>
		<polygon class="st66" points="903.2,122.2 903.5,120.5 904.1,121.8 905.8,121.8 904.9,122.5 905.3,123.6 904.1,123 903.5,124.1 
			903.2,123 902,122.3 		"/>
		<polygon class="st67" points="916.5,117.1 917,114.5 918,116.5 920.6,116.5 919.1,117.6 919.8,119.4 918,118.3 917,120 
			916.5,118.3 914.7,117.3 		"/>
		<polygon class="st65" points="855.1,151.8 854.9,150 856.6,150.9 858.3,150.2 857.4,151.9 858.8,153.4 856.6,153.4 855.7,155 
			855.7,153.1 853.5,152.8 		"/>
		<polygon class="st68" points="797.2,184.4 796.8,182.6 798.5,183.4 800.2,182.6 799.4,184.4 800.9,185.8 798.8,185.9 797.9,187.6 
			797.8,185.6 795.6,185.4 		"/>
		<polygon class="st68" points="912.1,186.4 911.7,184.6 913.5,185.4 915.1,184.5 914.4,186.4 915.9,187.8 913.7,187.9 912.8,189.6 
			912.7,187.6 910.5,187.4 		"/>
		<polygon class="st65" points="904.4,115.4 904.1,113.6 905.8,114.4 907.5,113.6 906.7,115.4 908.2,116.8 906,116.9 905.2,118.6 
			905.1,116.6 902.9,116.4 		"/>
		<polygon class="st66" points="829.9,110.8 829.5,108.3 831.2,109.3 833.5,108.2 832.4,110.4 833.9,112.6 831.8,112.6 831.3,114.4 
			830.5,112.1 827.8,112.2 		"/>
		<polygon class="st66" points="874.1,168.4 874.1,166 875.6,167.2 877.8,166.5 876.4,168.4 877.5,170.7 875.6,170.4 874.9,172 
			874.4,169.7 872,169.4 		"/>
		<polygon class="st69" points="889.5,184.7 890.6,183.7 890.5,185.3 892.7,185.9 890.5,186.6 890.6,187.9 889.5,186.5 887.7,187.4 
			888.6,185.5 888,184.2 		"/>
		<polygon class="st67" points="798.4,113.4 799.6,112.4 799.5,114 801.6,114.7 799.4,115.3 799.5,116.6 798.4,115.2 796.7,116.1 
			797.5,114.2 796.9,112.9 		"/>
		<polygon class="st70" points="890.5,133.8 890.5,132.2 891.6,133.4 893.6,132.2 892.6,134.3 893.6,135.1 891.8,135 891.3,136.9 
			890.5,135 889.1,134.5 		"/>
		<polygon class="st65" points="834.8,115.6 835.9,117.5 838.4,117.1 836.6,118.5 837.2,120.6 835.4,119.3 834,121.6 834.2,118.9 
			831.9,118.2 834.4,117.8 		"/>
		<polygon class="st68" points="915.5,155.5 916.6,157.4 919.1,157 917.3,158.5 917.9,160.5 916.2,159.2 914.7,161.6 915,158.9 
			912.6,158.1 915.1,157.7 		"/>
		<polygon class="st69" points="794.6,153.7 794.8,155.2 796.7,155.4 795.2,156.4 795.4,157.9 794,157 792.4,157.4 793.2,156 
			792,154.9 793.6,155 		"/>
		<polygon class="st67" points="892.8,153.8 893,155.4 894.9,155.5 893.4,156.5 893.6,158.1 892.2,157.1 890.6,157.5 891.5,156.1 
			890.2,155 891.9,155.2 		"/>
		<polygon class="st64" points="792.2,114.4 792.8,116.2 795.3,116.7 792.8,117.6 793.7,119.4 792,118.6 790.3,120.1 791,118 
			788.6,116.7 791,116.7 		"/>
		<polygon class="st70" points="787.9,143.3 788.5,145.1 791.1,145.6 788.5,146.5 789.4,148.4 787.7,147.5 786,149 786.7,146.9 
			784.3,145.6 786.7,145.6 		"/>
		<path class="st71" d="M911.9,118.1c0,0.1,0,0.3-0.1,0.4c-0.2,0.5-1,0.9-1.5,0.5c-0.5-0.3-0.6-0.9-0.4-1.4c0.2-0.7,1-0.7,1.5-0.4
			C911.7,117.4,911.9,117.7,911.9,118.1z"/>
		<path class="st71" d="M782.6,179.4c0,0.1,0,0.3-0.1,0.4c-0.2,0.5-1,0.8-1.6,0.5c-0.5-0.3-0.6-0.8-0.5-1.3c0.3-0.6,1-0.6,1.6-0.4
			C782.4,178.8,782.6,179.1,782.6,179.4z"/>
		<path class="st68" d="M887.8,151.5c0,0.2,0,0.3-0.1,0.5c-0.3,0.6-1.3,0.9-1.9,0.6c-0.6-0.3-0.8-1-0.5-1.5c0.3-0.7,1.3-0.8,1.9-0.4
			C887.6,150.8,887.8,151.1,887.8,151.5z"/>
		<path class="st65" d="M871,167.1c0,0.1-0.1,0.2-0.2,0.2c-0.3,0.3-0.9,0.2-1.1-0.2c-0.2-0.3-0.1-0.8,0.2-1c0.4-0.3,0.9-0.1,1.1,0.2
			C871.1,166.6,871.1,166.9,871,167.1z"/>
		<path class="st68" d="M788.4,155.9c0,0.1-0.1,0.2-0.2,0.2c-0.3,0.3-0.9,0.2-1.1-0.2c-0.2-0.3-0.1-0.8,0.2-1
			c0.4-0.3,0.9-0.1,1.1,0.2C788.5,155.4,788.5,155.7,788.4,155.9z"/>
		<path class="st71" d="M872.6,171.6c0.2,2.1-3.4,2.1-3-0.2c0.1-0.5,0.6-1.1,1.1-1.3C871.8,169.8,872.6,170.7,872.6,171.6z"/>
		<path class="st67" d="M791.5,159.8c0.2,2.1-3.4,2.1-3-0.2c0.1-0.5,0.6-1.1,1.1-1.3C790.7,158,791.4,158.9,791.5,159.8z"/>
		<path class="st68" d="M828.1,119.1c0.2,2.1-3.4,2.1-3-0.2c0.1-0.5,0.6-1.1,1.1-1.3C827.3,117.3,828,118.2,828.1,119.1z"/>
		<path class="st69" d="M919.9,140.9c-1.2,1.2-3-0.9-1.5-1.9c0.3-0.2,1-0.3,1.3,0C920.5,139.5,920.4,140.4,919.9,140.9z"/>
		<g>
			<path class="st65" d="M871.8,119.8c-0.6-0.1-1.3-0.2-1.9-0.3l-2.3,1.7c-0.1,0-0.1,0.1-0.2,0l-3.1-1.2c0,0-0.1,0-0.1-0.1
				c0,0-0.1-0.1-0.1-0.2l0.1-0.7c0-0.1,0.1-0.2,0.1-0.2l2-0.8l0.3-2.9l-1.8-1.2c0,0,0,0,0,0c0,0-0.1-0.1-0.1-0.2l0.1-0.7
				c0-0.1,0.1-0.2,0.2-0.2l3.3-0.5c0.1,0,0.2,0,0.2,0.1l1.9,2.1c0.7,0,1.3,0,2,0.1c2.6,0.3,4,1,5.6,3c0.1,0.1,0.1,0.3,0,0.3
				C876,119.5,874.3,120,871.8,119.8z M875.3,117c-0.3-0.3-0.7-0.3-1-0.1c-0.3,0.3-0.4,0.7-0.1,1c0.2,0.3,0.7,0.4,1,0.1
				C875.5,117.8,875.6,117.3,875.3,117z"/>
		</g>
		<path class="st68" d="M847.8,122.7c0.7-0.7,1.4-1.2,2-1.7c0.7-0.5,1.4-1,2.3-1.7c0.3-0.2,0.8-0.5,2-1.1c0.2-0.1,0.6-0.2,0.9-0.4
			c0.3-0.1,0.6-0.2,0.6-0.2s0.2-0.1,0.5-0.2c0.1,0,0.3-0.1,0.5-0.1c0.2,0,0.3-0.1,0.4-0.1c0.4-0.1,0.8-0.2,1.1-0.2
			c0.3,0,0.7-0.1,0.9-0.1c0.3,0,0.5-0.1,0.7-0.1c0.2,0,0.4,0,0.5,0c2.2-0.1,3.5-0.2,5.5-0.4c-1.9-0.7-3.2-1.2-5.6-1.1
			c-0.1,0-0.3,0-0.6,0c-0.2,0-0.5,0.1-0.8,0.1c-0.3,0-0.6,0.1-1,0.1c-0.4,0.1-0.8,0.2-1.2,0.3c-0.1,0-0.3,0.1-0.5,0.1
			c-0.2,0.1-0.3,0.1-0.5,0.2c-0.3,0.1-0.6,0.2-0.6,0.2s-0.3,0.1-0.7,0.2c-0.4,0.1-0.8,0.3-1,0.4c-1.3,0.6-1.8,1-2.2,1.2
			C849.3,119.5,848.5,120.8,847.8,122.7z"/>
		<g>
			<path class="st68" d="M850.3,188c-0.7,0.7-1.4,1.2-2.1,1.6c-0.7,0.5-1.4,1-2.3,1.6c-0.3,0.2-0.8,0.5-2,1
				c-0.2,0.1-0.6,0.2-0.9,0.3c-0.3,0.1-0.6,0.2-0.6,0.2s-0.2,0.1-0.5,0.1c-0.1,0-0.3,0.1-0.5,0.1c-0.2,0-0.3,0.1-0.4,0.1
				c-0.4,0.1-0.8,0.1-1.1,0.2c-0.3,0-0.7,0.1-0.9,0.1c-0.3,0-0.5,0-0.7,0.1c-0.2,0-0.4,0-0.5,0c-2.2,0-3.5,0.1-5.5,0.2
				c1.8,0.8,3.2,1.3,5.6,1.3c0.1,0,0.3,0,0.6,0c0.2,0,0.5,0,0.8-0.1c0.3,0,0.6-0.1,1-0.1c0.4-0.1,0.8-0.1,1.2-0.2
				c0.1,0,0.3,0,0.5-0.1c0.2,0,0.4-0.1,0.5-0.1c0.3-0.1,0.6-0.2,0.6-0.2s0.3-0.1,0.7-0.2c0.4-0.1,0.8-0.3,1-0.4
				c1.3-0.6,1.9-0.9,2.2-1.1C848.8,191.1,849.6,189.8,850.3,188z"/>
			<path class="st65" d="M830.7,194.5c-1.9,2-4.9-1.5-2.4-3c0.5-0.3,1.6-0.4,2.2-0.1C831.7,192.2,831.5,193.6,830.7,194.5z"/>
		</g>
	</g>
	<g>
		<path class="st59" d="M1286.7,124.5c-2.6,0.5-5.3,1.3-8.7,2.5c-1.1,0.4-2.9,1.2-6.7,2.8c-2.5,1-5.7,2.5-9.2,4
			c-3.5,1.6-7.3,3.3-10.7,5c-3.4,1.7-6.5,3.3-8.7,4.5c-2.2,1.2-3.6,2-3.6,2c0,0-1.2,0.6-3,1.7c-1.9,1.1-4.5,2.6-7.3,4.4
			c-5.7,3.6-12.5,8.2-16.9,12.6c-1,1-1.9,2-2.7,3.1c-0.7,1-1.3,2.1-1.6,3.5c1.3,0.1,2.6,0.4,3.9,0.4c0.3,0,0.5,0.1,0.7,0.2
			c0.1-0.3,0.4-0.9,0.8-1.4c0.5-0.7,1.3-1.6,2.2-2.5c1.9-1.9,4.5-4.1,7.4-6.1c2.8-2.1,5.9-4.1,8.7-5.8c2.8-1.7,5.3-3.2,7.2-4.3
			c1.8-1.1,3-1.7,3-1.7s1.4-0.8,3.5-1.9c2.2-1.2,5.2-2.7,8.6-4.4c3.4-1.7,7.1-3.4,10.5-4.9c3.5-1.6,6.7-3,9.1-4
			c3.7-1.5,5.5-2.3,6.6-2.7c3.3-1.2,5.8-2.4,8.1-3.6c2.4-1.1,4.5-2.4,7.2-4C1291.9,123.9,1289.4,124.1,1286.7,124.5z"/>
		<path class="st14" d="M1233.4,154.8c-0.8-1.1-2.6-1.6-5.4-1.6h-6.6c-2.9,0-4.8,0.5-5.6,1.5c-0.7,1-1,2.7-1,5v11c0,0,0.1,0,0.1,0
			c0.5,0.1,1.1,0.2,1.8,0.2l0.5,0c0.9,0.1,1.3,0.1,2.3,0.1c0.1,0,0.1,0,0.2,0c0.7,0,1.3,0.3,1.7,0.7v-12.1h6.6v6l3.9-2.7l0.1,0
			l0.1,0c0.3-0.2,0.7-0.3,1.2-0.3c0.3,0,0.5,0,0.7,0.1l0,0l0,0l0.6,0.2v-3.3C1234.5,157.5,1234.1,155.9,1233.4,154.8z"/>
		<g>
			<path class="st14" d="M1228,105.4l6.6,0l0.1,44.6l-6.6,0L1228,105.4z"/>
			<path class="st14" d="M1237.9,150l-0.1-44.6l6.6,0l0,2.8l0.8-1.3l0.8-0.7c0.6-0.6,1.6-0.9,3-0.9l2,0c1.9,0,3.5,0.6,4.7,1.9
				c1.3,1.2,1.9,2.8,1.9,4.6l0,38.1l-6.6,0l0-38.2l-6.7,0l0,38.2L1237.9,150z"/>
			<path class="st14" d="M1267.5,150l0-38.1l-7.8,0l0-6.5l22.3,0l0,6.5l-7.9,0l0,38.1L1267.5,150z"/>
			<path class="st14" d="M1296.9,105.3c2.8,0,4.7,0.5,5.4,1.6c0.8,1.1,1.2,2.7,1.2,4.9l0,31.7c0,2.3-0.3,4-1,5
				c-0.7,1-2.5,1.5-5.6,1.5l-6.6,0c-2.7,0-4.5-0.5-5.6-1.5c-0.7-1.2-1-2.9-1-4.9l0-31.7c0-2.3,0.3-4,1-5c0.8-1,2.6-1.5,5.6-1.5
				L1296.9,105.3z M1296.9,143.5l0-31.7l-6.6,0l0,31.7L1296.9,143.5z"/>
		</g>
		<path class="st14" d="M1262.7,153.2h13.3c2.8,0,4.7,0.5,5.4,1.6c0.8,1.1,1.2,2.7,1.2,4.9v7.8c0,2-0.3,3.4-0.8,4
			c-0.5,0.7-1.4,1.3-2.6,2c0.9,0,1.7,0.3,2.4,1c0.7,0.7,1.1,1.5,1.1,2.4v14.5c0,2.3-0.3,4-1,5c-0.7,1-2.5,1.5-5.6,1.5h-13.3V153.2z
			 M1276,169.9l0-10.2h-6.7v13.5L1276,169.9z M1269.3,191.4h6.7v-14.2l-6.7,3.4V191.4z"/>
		<path class="st76" d="M1284.5,156.7c0-2.5,2.1-4.6,4.6-4.6c2.5,0,4.6,2.1,4.6,4.6c0,2.5-2.1,4.6-4.6,4.6
			C1286.5,161.2,1284.5,159.2,1284.5,156.7z"/>
		<path class="st14" d="M1289.1,163.2c-1.2,0-2.3-0.3-3.3-0.9v35.6h6.6v-35.6C1291.4,162.8,1290.3,163.2,1289.1,163.2z"/>
		<path class="st14" d="M1303.1,197.8v-38.1h-7.8v-6.5h22.3v6.5h-7.9v38.1H1303.1z"/>
		<path class="st14" d="M1251.7,176.8l6-3.1v-14.1c0-2.2-0.4-3.8-1.2-4.9c-0.8-1-2.6-1.6-5.4-1.6h-13.2v10.4
			c0.4-0.2,0.8-0.3,1.2-0.5c1.9-0.7,3.5-1,5-1c0.1,0,0.3,0,0.4,0v-2.5h6.6v9.9l-6.6,3.6v0c-0.5,0.2-1,0.5-1.6,0.7
			c-0.6,0.2-1.3,0.4-2.1,0.7l-1.6,3l0,0l0,0c-0.3,0.5-0.7,0.8-1.3,1v19.3h6.6v-17.3l1.5-0.6l8,17.9l7.2,0L1251.7,176.8z"/>
		<g>
			<path class="st14" d="M1232.7,179.1c-0.1,0-0.1,0-0.2,0c-0.3,0-0.6-0.1-0.9-0.2c-0.5-0.2-0.9-0.6-1.1-1.1l0-0.1l0-0.1l-0.3-0.9
				l0-0.1l0-0.1c-0.1-0.4-0.1-0.9,0-1.3c-0.5,0.6-1.1,1-1.9,1.2c-0.1,0-0.2,0-0.2,0v14.9h-6.6V178c-0.4,0.2-0.8,0.4-1.2,0.5
				c-1.3,0.3-2.1,0.4-3.6,0.5c-0.3,0-0.6,0-0.9,0h0c-0.3,0-0.6,0-0.8,0v12.4c0,2,0.3,3.7,1,4.9c1,1,2.9,1.6,5.6,1.6h6.6
				c3.1,0,4.9-0.5,5.6-1.5c0.7-1,1-2.7,1-5v-12.5L1232.7,179.1z"/>
		</g>
		<path class="st59" d="M1222.3,174.4c0.2,0.9,0.9,1.4,1.7,1.3c0.8-0.2,1.3-1,1.1-1.8c-0.2-0.9-0.9-1.4-1.7-1.3
			C1222.7,172.7,1222.2,173.5,1222.3,174.4z"/>
		<path class="st59" d="M1221.3,174.6c-0.1-1-1-1.6-1.9-1.5c0,0-0.1,0-0.1,0c0,0,0,0,0,0c-1.3,0-1.6-0.1-2.9-0.2
			c-0.7-0.1-1.3-0.1-2-0.3c-0.6-0.1-1.3-0.3-1.7-0.5c-0.1-0.1-0.3-0.2-0.4-0.3c0,0-0.1-0.1-0.1-0.1c0,0,0,0,0,0c0,0,0,0,0,0
			c0-0.1-0.1-0.1-0.1-0.2c0,0,0,0,0-0.1c0-0.1,0.1-0.4,0.4-0.8c0.2-0.4,0.5-0.8,0.8-1.2c-1.1-0.4-2-1.3-2.2-2.5
			c-0.1-0.7-0.1-1.4-0.1-2c-1.1,1.2-2,2.3-2.6,3.5c-0.4,0.7-0.7,1.4-0.8,2.1c-0.2,0.7-0.2,1.3-0.1,1.7c0.1,0.9,0.4,1.7,0.8,2.2
			c0.1,0.1,0.2,0.3,0.3,0.4c0.1,0.1,0.2,0.2,0.3,0.3c0.2,0.2,0.3,0.3,0.5,0.5c0.6,0.5,1,0.7,1.4,0.9c1.1,0.5,2.1,0.7,3.1,0.9
			c0.9,0.1,1.8,0.1,2.6,0.1c1.5-0.1,2.2-0.2,3.3-0.5c0,0,0.1,0,0.1,0c0,0,0.1,0,0.1,0C1220.9,176.5,1221.5,175.6,1221.3,174.6z"/>
		<path class="st59" d="M1229.8,172.2c0.1,0.6,0.7,1.1,1.3,1c0.6-0.1,1-0.7,0.9-1.4c-0.1-0.6-0.7-1.1-1.3-1
			C1230,170.9,1229.7,171.6,1229.8,172.2z"/>
		<path class="st77" d="M1249.1,165.4c-3.4-1.6-5.7-1.7-9.3-0.4c-0.8,0.3-1.7,0.7-2.6,1.1l-3.8-1.6c-0.1,0-0.2,0-0.3,0l-4,2.8
			c-0.1,0.1-0.2,0.3-0.1,0.4l0.3,0.9c0,0.1,0.1,0.2,0.2,0.2c0,0,0.1,0,0.1,0l3.1,0.4l1.5,4.1l-2.1,2.3c-0.1,0.1-0.1,0.2-0.1,0.4
			l0.3,0.9c0,0.1,0.1,0.2,0.2,0.2c0.1,0,0.1,0,0.2,0l4.8-0.4c0.1,0,0.2-0.1,0.3-0.2l2-3.7c1-0.3,1.9-0.5,2.7-0.8
			c3.5-1.3,5.4-3,6.9-6.3C1249.3,165.6,1249.2,165.4,1249.1,165.4z M1245.7,167.6c-0.2,0.5-0.9,0.8-1.4,0.5
			c-0.5-0.2-0.8-0.9-0.5-1.4c0.2-0.5,0.9-0.7,1.4-0.5C1245.7,166.5,1245.9,167.1,1245.7,167.6z"/>
		<path class="st59" d="M1226.3,173.4c0.1,0.8,0.8,1.3,1.5,1.1c0.7-0.1,1.1-0.9,1-1.6c-0.1-0.8-0.8-1.3-1.5-1.1
			C1226.6,171.9,1226.1,172.7,1226.3,173.4z"/>
		<g>
			<path class="st60" d="M1310.4,197.1l0.3,0c0,0.1,0,0.2,0.1,0.3c0,0.1,0.1,0.1,0.2,0.2c0.1,0,0.2,0.1,0.4,0.1c0.1,0,0.2,0,0.3-0.1
				c0.1,0,0.2-0.1,0.2-0.1c0-0.1,0.1-0.1,0.1-0.2c0-0.1,0-0.1-0.1-0.2c0-0.1-0.1-0.1-0.2-0.1c-0.1,0-0.2-0.1-0.4-0.1
				c-0.2-0.1-0.4-0.1-0.4-0.1c-0.1-0.1-0.2-0.1-0.2-0.2c-0.1-0.1-0.1-0.2-0.1-0.3c0-0.1,0-0.2,0.1-0.3c0.1-0.1,0.2-0.2,0.3-0.2
				c0.1-0.1,0.3-0.1,0.4-0.1c0.2,0,0.3,0,0.4,0.1c0.1,0.1,0.2,0.1,0.3,0.2c0.1,0.1,0.1,0.2,0.1,0.4l-0.3,0c0-0.1-0.1-0.3-0.2-0.3
				c-0.1-0.1-0.2-0.1-0.4-0.1c-0.2,0-0.3,0-0.4,0.1c-0.1,0.1-0.1,0.1-0.1,0.2c0,0.1,0,0.1,0.1,0.2c0.1,0.1,0.2,0.1,0.5,0.2
				c0.2,0.1,0.4,0.1,0.5,0.1c0.1,0.1,0.2,0.1,0.3,0.2c0.1,0.1,0.1,0.2,0.1,0.3c0,0.1,0,0.2-0.1,0.3c-0.1,0.1-0.2,0.2-0.3,0.3
				c-0.1,0.1-0.3,0.1-0.4,0.1c-0.2,0-0.4,0-0.5-0.1c-0.1-0.1-0.2-0.2-0.3-0.3C1310.4,197.4,1310.4,197.3,1310.4,197.1z"/>
			<path class="st60" d="M1312.6,197.8v-2.3h0.5l0.5,1.6c0,0.2,0.1,0.3,0.1,0.3c0-0.1,0.1-0.2,0.1-0.4l0.5-1.6h0.4v2.3h-0.3v-1.9
				l-0.7,1.9h-0.3l-0.7-1.9v1.9H1312.6z"/>
		</g>
	</g>
	<rect x="1057.5" y="72.2" class="st14" width="0.2" height="158.9"/>
	<rect x="1467.3" y="72.2" class="st14" width="0.2" height="158.9"/>
	<rect x="1877.1" y="72.2" class="st14" width="0.2" height="158.9"/>
	<g>
		<g>
			<g>
				<g>
					<path class="st112" d="M2074.3,156l-8.6,24.8c4.1,0.5,7.3,3.8,7.6,8c0.3-0.2,0.7-0.3,1.1-0.3c0,0,0-0.1,0-0.1
						c0-1.8,1-3.3,2.5-4c0.6-0.3,1.2-0.4,1.9-0.4c0.2,0,0.4,0,0.5,0l2.1-28h-4.6H2074.3z"/>
					<path class="st112" d="M2089.7,156h-3.3h-4l2.4,31c0.7,0.2,1.3,0.6,1.6,1.2c0.2,0.3,0.3,0.6,0.4,1c0.5-0.4,1.2-0.7,2-0.7
						c1.4,0,2.5,0.8,3,2c1.3-1.9,3.6-3.2,6.1-3.2c1,0,2,0.2,2.8,0.6L2089.7,156z"/>
				</g>
				<g>
					<polygon class="st14" points="2008,148.8 2004.3,152.5 2004.3,170.2 2019.6,176.7 2019.6,182.5 2004.3,182.5 2004.3,191.9 
						2025.2,191.9 2028.9,188.1 2028.9,170.4 2013.6,163.9 2013.6,158.1 2028.9,158.1 2028.9,148.8 					"/>
					<path class="st14" d="M2105.8,148.8l-2.8,2.8v36c0.5-0.1,1.1-0.2,1.7-0.2c2.2,0,4.1,1,5.3,2.6c0.5-0.5,1.2-0.8,2-0.8
						c0.1,0,0.2,0,0.4,0c1.4,0.2,2.5,1.3,2.6,2.7h9.9l2.8-2.8v-11.3h-9.4v4.7h-5.9v-24.4h5.9v4.7h9.4v-11.3l-2.7-2.7H2105.8z"/>
					<path class="st14" d="M2037.8,148.8v43.1h1.1c0.7-1.2,2-2,3.5-2c0.3,0,0.7,0,1,0.1c0.1-2.4,1.6-4.5,3.8-5.3v-7.2h11.7l3.6-3.6
						v-21.4l-3.8-3.8H2037.8z M2053.1,168.1h-5.9v-10h5.9V168.1z"/>
					<polygon class="st14" points="2160,158.1 2160,148.8 2135.3,148.8 2135.3,191.9 2160,191.9 2160,182.5 2144.7,182.5 
						2144.7,175 2154,175 2154,165.6 2144.7,165.6 2144.7,158.1 					"/>
				</g>
				<g>
					<path class="st112" d="M2035.2,83.1c-0.4-0.4-0.8-0.7-1.3-0.9c-0.5-0.2-1.1-0.4-1.6-0.4h-3.3v8.5h3.3c0.6,0,1.1-0.1,1.6-0.4
						c0.5-0.2,1-0.5,1.3-0.9c0.4-0.4,0.7-0.8,0.9-1.4c0.2-0.5,0.3-1.1,0.3-1.6c0-0.6-0.1-1.1-0.3-1.6
						C2035.9,83.9,2035.6,83.5,2035.2,83.1z M2034,87c-0.1,0.3-0.3,0.5-0.5,0.8c-0.2,0.2-0.5,0.4-0.8,0.5c-0.3,0.1-0.6,0.2-1,0.2
						h-0.5v-4.8h0.5c0.4,0,0.7,0.1,1,0.2c0.3,0.1,0.6,0.3,0.8,0.5c0.2,0.2,0.4,0.5,0.5,0.8c0.1,0.3,0.2,0.6,0.2,0.9
						C2034.1,86.4,2034.1,86.7,2034,87z"/>
					<polygon class="st112" points="2039.4,90.3 2044.2,90.3 2044.2,88.4 2041.6,88.4 2041.6,87 2044.1,87 2044.1,85.1 2041.6,85.1 
						2041.6,83.7 2044.2,83.7 2044.2,81.8 2039.4,81.8 					"/>
					<path class="st112" d="M2051.4,85.1c-0.2-0.1-0.4-0.1-0.5-0.2c-0.2-0.1-0.4-0.1-0.5-0.2c-0.1-0.1-0.3-0.2-0.4-0.3
						c-0.1-0.1-0.1-0.2-0.1-0.4c0-0.2,0.1-0.4,0.3-0.5c0.2-0.1,0.4-0.2,0.7-0.2c0.2,0,0.5,0,0.7,0.1c0.2,0.1,0.5,0.2,0.7,0.4
						l0.9-1.7c-0.4-0.2-0.9-0.4-1.3-0.5c-0.5-0.1-0.9-0.2-1.3-0.2c-0.5,0-0.9,0.1-1.2,0.2c-0.4,0.1-0.7,0.3-0.9,0.6
						c-0.3,0.2-0.4,0.5-0.6,0.9c-0.1,0.3-0.2,0.7-0.2,1.1c0,0.4,0.1,0.8,0.2,1c0.1,0.3,0.3,0.5,0.5,0.7c0.2,0.2,0.5,0.3,0.7,0.4
						c0.3,0.1,0.6,0.2,0.8,0.3c0.2,0.1,0.4,0.2,0.6,0.2c0.2,0.1,0.3,0.1,0.4,0.2c0.1,0.1,0.2,0.2,0.2,0.3c0,0.1,0.1,0.2,0.1,0.3
						c0,0.2-0.1,0.4-0.3,0.6c-0.2,0.2-0.4,0.2-0.8,0.2c-0.3,0-0.6-0.1-1-0.2c-0.3-0.1-0.7-0.4-1-0.7l-0.9,1.8c0.9,0.6,1.9,1,3,1
						c0.5,0,1-0.1,1.4-0.2c0.4-0.1,0.8-0.3,1-0.6c0.3-0.3,0.5-0.6,0.6-0.9c0.1-0.4,0.2-0.7,0.2-1.2c0-0.6-0.2-1.2-0.5-1.6
						C2052.7,85.7,2052.2,85.4,2051.4,85.1z"/>
					<polygon class="st112" points="2056,83.7 2057.8,83.7 2057.8,90.3 2060,90.3 2060,83.7 2061.8,83.7 2061.8,81.8 2056,81.8 
											"/>
					<rect x="2064.9" y="81.8" class="st112" width="2.2" height="8.5"/>
					<polygon class="st112" points="2077,87 2072.9,81.8 2070.7,81.8 2070.7,90.3 2072.9,90.3 2072.9,85.1 2077,90.3 2079.2,90.3 
						2079.2,81.8 2077,81.8 					"/>
					<path class="st112" d="M2085.2,81.8l-3.2,8.5h2.4l0.5-1.5h3.2l0.5,1.5h2.4l-3.2-8.5H2085.2z M2085.5,87.1l1-2.8l1,2.8H2085.5z"
						/>
					<polygon class="st112" points="2092.5,83.7 2094.3,83.7 2094.3,90.3 2096.5,90.3 2096.5,83.7 2098.4,83.7 2098.4,81.8 
						2092.5,81.8 					"/>
					<rect x="2101.4" y="81.8" class="st112" width="2.2" height="8.5"/>
					<path class="st112" d="M2115,82.8c-0.4-0.4-0.9-0.7-1.5-1c-0.6-0.2-1.2-0.3-1.9-0.3c-0.7,0-1.3,0.1-1.9,0.3
						c-0.6,0.2-1.1,0.5-1.5,1c-0.4,0.4-0.7,0.9-1,1.4c-0.2,0.5-0.4,1.1-0.4,1.8c0,0.6,0.1,1.2,0.4,1.8c0.2,0.5,0.6,1,1,1.4
						c0.4,0.4,0.9,0.7,1.5,1c0.6,0.2,1.2,0.3,1.9,0.3c0.7,0,1.3-0.1,1.9-0.3c0.6-0.2,1.1-0.5,1.5-1c0.4-0.4,0.7-0.9,1-1.4
						c0.2-0.5,0.4-1.1,0.4-1.8c0-0.6-0.1-1.2-0.4-1.8C2115.7,83.7,2115.4,83.3,2115,82.8z M2113.8,87c-0.1,0.3-0.3,0.5-0.5,0.7
						c-0.2,0.2-0.5,0.4-0.8,0.5c-0.3,0.1-0.6,0.2-0.9,0.2c-0.3,0-0.6-0.1-0.9-0.2c-0.3-0.1-0.5-0.3-0.8-0.5
						c-0.2-0.2-0.4-0.5-0.5-0.7c-0.1-0.3-0.2-0.6-0.2-0.9c0-0.3,0.1-0.7,0.2-0.9c0.1-0.3,0.3-0.5,0.5-0.7c0.2-0.2,0.5-0.4,0.8-0.5
						c0.3-0.1,0.6-0.2,0.9-0.2c0.3,0,0.6,0.1,0.9,0.2c0.3,0.1,0.5,0.3,0.8,0.5c0.2,0.2,0.4,0.5,0.5,0.7c0.1,0.3,0.2,0.6,0.2,0.9
						C2114,86.4,2113.9,86.7,2113.8,87z"/>
					<polygon class="st112" points="2125.8,87 2121.7,81.8 2119.5,81.8 2119.5,90.3 2121.7,90.3 2121.7,85.1 2125.8,90.3 2128,90.3 
						2128,81.8 2125.8,81.8 					"/>
					<rect x="2131.8" y="81.8" class="st112" width="2.2" height="2.2"/>
					<rect x="2131.8" y="88.1" class="st112" width="2.2" height="2.2"/>
				</g>
				<g>
					<polygon class="st14" points="2052.9,101.7 2052.9,134.8 2074.8,134.8 2077.6,132 2077.6,126.1 2061.6,126.1 2061.6,122.6 
						2071.6,122.6 2071.6,113.9 2061.6,113.9 2061.6,110.3 2077.6,110.3 2077.6,101.7 					"/>
					<path class="st14" d="M2139.2,101.7h-20.7v33.1h8.7v-6.9h12.9l2.5-2.5v-6.2v-14.1L2139.2,101.7z M2133.9,119.2h-6.8v-8.9h6.8
						V119.2z"/>
					<polygon class="st14" points="2085.7,101.7 2085.7,132 2088.5,134.8 2110.4,134.8 2110.4,126.1 2094.4,126.1 2094.4,122.6 
						2104.4,122.6 2104.4,113.9 2094.4,113.9 2094.4,110.3 2110.4,110.3 2110.4,101.7 					"/>
					<path class="st14" d="M2020.1,101.7v33.1h22.2l2.5-2.5v-6.2v-15.8v-5.2l-3.4-3.4H2020.1z M2036.2,126.1h-7.4v-15.8h7.4V126.1z"
						/>
				</g>
				<g>
					<g>
						<g>
							<polygon class="st73" points="2074.8,154.3 2074.9,154.3 2077,154.3 2077.8,154.3 2077.8,148.8 2077.8,148.2 2077.8,147.4 
								2077.2,147.4 							"/>
						</g>
						<g>
							<polygon class="st73" points="2086.7,147.4 2086.1,147.4 2086.1,148.2 2086.1,148.8 2086.1,154.3 2086.3,154.3 2089.1,154.3 
								2089.1,154.3 							"/>
						</g>
						<g>
							<polygon class="st73" points="2082,135.8 2080.5,138.5 2083.5,138.5 							"/>
						</g>
						<path class="st113" d="M2084.2,140.9l-0.7-1.3h-3.2l-0.7,1.3c0,0.1,0,0.1-0.1,0.2c-0.5,1.8-0.7,3.2-0.7,5.1v0.1v1.9v0.6v4.4
							h1.4v1.9h1.3h0.6h1.3v-1.9h1.4v-4.4v-0.6v-1.9v-0.1c0-1.9-0.3-3.3-0.7-5.1C2084.2,141.1,2084.2,141,2084.2,140.9z"/>
					</g>
				</g>
			</g>
		</g>
		<g>
			<path class="st14" d="M2079.6,213.9c0.4-0.9,0.6-1.9,0.6-2.9c0-2.4-1.2-4.5-3.1-5.8c1.1-1.1,2.3-2.3,3.6-3.3
				c-1.5,0.9-2.9,1.9-4.2,3c-1-0.5-2-0.8-3.2-0.8c-3.8,0-6.9,3.1-6.9,6.9c0,1.7,0.6,3.3,1.7,4.5c-1.3,2.9-1.6,5.2-0.4,5.9
				c1.2,0.8,4-0.7,5.6-3.1c0,0-2.5,2.3-3.9,1.7c-0.9-0.3-0.9-1.6-0.2-3.5c1.1,0.8,2.6,1.3,4.1,1.3c1.9,0,3.6-0.8,4.9-2l0.2,0.5
				c3-0.2,12-0.5,12-0.5C2090.4,215.5,2084.5,215.9,2079.6,213.9 M2067.3,211c0-3.4,2.7-6.1,6.1-6.1c0.9,0,1.8,0.2,2.5,0.5
				c-3.3,2.9-5.8,6.3-7.4,9.2C2067.7,213.7,2067.3,212.4,2067.3,211 M2073.3,217.1c-1.4,0-2.7-0.5-3.8-1.3c1.2-2.7,3.7-6.4,7-9.9
				c1.7,1.1,2.8,3,2.8,5.1c0,0.9-0.2,1.8-0.6,2.6c-1.1-0.5-2.1-1.1-2.9-1.9l1.8,3.4C2076.7,216.3,2075.1,217.1,2073.3,217.1"/>
			<polygon class="st14" points="2120.8,210.4 2121.9,208.9 2118,208.9 2119,207.6 2122.9,207.6 2124,206.1 2116.2,206.1 
				2110.8,213.2 2118.6,213.2 2119.8,211.7 2115.8,211.7 2116.9,210.4 			"/>
			<polygon class="st14" points="2126.2,206.1 2120.9,213.2 2124.8,213.2 2130.1,206.1 			"/>
			<polygon class="st14" points="2139.3,206.1 2136.5,209.7 2135.7,206.1 2132.6,206.1 2127.2,213.2 2129.8,213.2 2132.5,209.6 
				2133.4,213.2 2136.5,213.2 2141.8,206.1 			"/>
			<path class="st14" d="M2152,206.1h-6.3c-1.1,0-2,0.5-2.6,1.3l-3.2,4.3c-0.1,0.2-0.2,0.4-0.2,0.6c0,0.5,0.4,1,1,1h6.3
				c1.1,0,2-0.5,2.6-1.3l0.8-1h0.9l1.1-1.5h-4.8l-1.5,2c-0.2,0.2-0.4,0.3-0.7,0.3h-1.1c-0.1,0-0.3-0.1-0.3-0.2c0-0.1,0-0.1,0.1-0.2
				l2.6-3.4c0.2-0.2,0.4-0.3,0.7-0.3h1.1c0.1,0,0.2,0.1,0.2,0.2c0,0.1,0,0.1-0.1,0.1l-0.4,0.6h3.9l0.7-0.9c0.1-0.2,0.2-0.4,0.2-0.6
				C2153,206.5,2152.5,206.1,2152,206.1"/>
			<path class="st14" d="M2113,207c0-0.5-0.4-1-1-1h-6.3c-1.1,0-2,0.5-2.6,1.3l-3.2,4.3c-0.1,0.2-0.2,0.4-0.2,0.6c0,0.5,0.4,1,1,1
				h6.3c1.1,0,2-0.5,2.6-1.3l3.2-4.3C2112.9,207.5,2113,207.3,2113,207 M2108.6,208l-2.6,3.4c-0.2,0.2-0.4,0.3-0.7,0.3h-1.1
				c-0.1,0-0.2-0.1-0.2-0.2c0-0.1,0-0.1,0.1-0.2l2.6-3.4c0.2-0.2,0.4-0.3,0.7-0.3h1.1c0.1,0,0.3,0.1,0.3,0.2
				C2108.7,207.9,2108.7,207.9,2108.6,208"/>
			<path class="st14" d="M2098.2,209.8c0.8-0.2,1.4-0.6,1.9-1.2l0.7-1c0.1-0.2,0.2-0.4,0.2-0.6c0-0.5-0.4-1-1-1h-4h-3.9l-5.4,7.1
				h3.8h4.4c1.1,0,2-0.5,2.6-1.3l0.8-1c0.1-0.1,0.2-0.3,0.2-0.5C2098.5,210.2,2098.4,210,2098.2,209.8 M2094.6,210.8l-0.5,0.6
				c-0.2,0.2-0.4,0.3-0.7,0.3h-1.6l1-1.4h1.5c0.1,0,0.2,0.1,0.2,0.2C2094.7,210.7,2094.6,210.7,2094.6,210.8 M2096.7,208l-0.4,0.5
				c-0.2,0.2-0.4,0.3-0.7,0.3l-1.6,0l1-1.3h1.5c0.1,0,0.2,0.1,0.2,0.2C2096.8,207.9,2096.7,207.9,2096.7,208"/>
			<text transform="matrix(1 0 0 1 2015.5223 213.4363)" class="st112 st126 st127">Presented By</text>
		</g>
	</g>
	<g>
		<g>
			<path class="st112" d="M1728.9,190.5C1728.9,190.5,1728.9,190.6,1728.9,190.5C1729,190.6,1729,190.6,1728.9,190.5z"/>
			<path class="st112" d="M1619.5,181.1c-1-0.4-2.1-0.8-2.6,0.5c-0.5,1-0.4,2.2-0.3,3.2c0.1,1.1,0.3,2.2,0.8,3.1
				c0.1,0.3,0.3,0.8,0.6,0.9c0.5,0.2,0.5-0.5,0.5-0.8c0-0.9,0.2-1.9,0.3-2.8c0.1-0.3,0.1-1,0.4-1.2c0.1,0,0.2,0,0.3,0
				c0.5,0.1,1-0.2,1.3-0.7c1.1-1.8,2.6-3.1,4.4-4.2c1.1-0.6,0.9-2.3-0.4-2.6c0,0-0.1,0-0.1,0c-1.2-0.1-2.4,0.6-3.3,1.3
				C1620.6,178.7,1620,179.9,1619.5,181.1z"/>
			<path class="st112" d="M1662.3,151.3c1.8-0.2,3.3,0.4,3.5,0.3c0.2-0.1,4-5.2,12-2.8c0.4,0.1,0.7-0.4,0.4-0.7c0,0-0.1-0.1-0.1-0.1
				c-1.1-1-2.6-1.7-4-2c-1.3-0.3-5.7-0.3-7.8,2.2c-0.2,0.3-0.4,0.4-0.7,0.3c-1-0.3-2.2,0.1-2.9,0.3c-0.8,0.3-1.5,0.8-2.1,1.4
				c-0.3,0.2-1.4,1.4-1,1.8C1659.5,152.3,1661.1,151.4,1662.3,151.3z"/>
			<path class="st112" d="M1724.4,185.2c0,0.2,0.2,0.3,0.4,0.4c0.7,0.1,2.4,0.2,3.7,0.8c2.4,1.1,3.8,3.3,4.1,3
				c0.3-0.3,0-1.4-0.2-1.8c-0.2-0.7-0.6-1.4-1-2c-0.4-0.5-0.8-1.1-1.4-1.1c-0.2,0-0.7,0.2-0.8,0.1c-0.2-0.1-0.4-0.5-0.6-0.7
				c-0.5-0.4-1.1-0.8-1.8-0.8c-0.7,0-1.2,0.6-1.7,1c-0.1,0.1-0.3,0.3-0.6,0.6C1724.4,184.9,1724.4,185.1,1724.4,185.2
				C1724.4,185.2,1724.4,185.2,1724.4,185.2z"/>
			<path class="st112" d="M1701.7,153.5C1701.7,153.5,1701.6,153.5,1701.7,153.5c-0.2,0-0.3,0.3-0.1,0.4c5,1.5,8.9,5.5,10.5,10.5
				c0.1,0.2,0.4,0.2,0.4-0.1c0,0,0,0,0,0C1713.1,157.8,1708.4,153,1701.7,153.5z"/>
			<path class="st112" d="M1716.6,175c-0.4,0-0.7,0.3-0.7,0.7c0,0.4,0.3,0.7,0.7,0.7c0.4,0,0.7-0.3,0.7-0.7
				C1717.4,175.4,1717.1,175,1716.6,175z"/>
			<path class="st112" d="M1648.2,164.5c0.5,0,0.9-0.4,0.9-0.9s-0.4-0.9-0.9-0.9s-0.9,0.4-0.9,0.9S1647.6,164.5,1648.2,164.5z"/>
			<path class="st112" d="M1738.2,191.1c0,0.4,0.3,0.7,0.7,0.7c0.4,0,0.7-0.3,0.7-0.7c0-0.4-0.3-0.7-0.7-0.7
				C1738.5,190.4,1738.2,190.7,1738.2,191.1z"/>
			<path class="st112" d="M1630.7,175.9c0.4,0,0.7-0.3,0.7-0.7c0-0.4-0.3-0.7-0.7-0.7s-0.7,0.3-0.7,0.7
				C1630,175.6,1630.3,175.9,1630.7,175.9z"/>
			<path class="st112" d="M1630.5,172.6c0-0.2-0.1-0.3-0.3-0.3s-0.3,0.1-0.3,0.3c0,0.2,0.1,0.3,0.3,0.3S1630.5,172.8,1630.5,172.6z"
				/>
			<circle class="st112" cx="1645.5" cy="162.7" r="0.3"/>
			<path class="st112" d="M1718.6,177.8c0,0.2,0.2,0.4,0.4,0.4c0.2,0,0.4-0.2,0.4-0.4c0-0.2-0.2-0.4-0.4-0.4
				C1718.8,177.4,1718.6,177.6,1718.6,177.8z"/>
			<path class="st112" d="M1717.6,173.6c0-0.2-0.1-0.3-0.3-0.3c-0.2,0-0.3,0.1-0.3,0.3c0,0.2,0.1,0.3,0.3,0.3
				C1717.4,173.9,1717.6,173.8,1717.6,173.6z"/>
			<path class="st112" d="M1649.6,161c0.2,0,0.5-0.2,0.5-0.5c0-0.3-0.2-0.5-0.5-0.5s-0.5,0.2-0.5,0.5
				C1649.2,160.8,1649.4,161,1649.6,161z"/>
			<path class="st112" d="M1602.1,195.5c-0.4,0-0.7,0.3-0.7,0.7c0,0.4,0.3,0.7,0.7,0.7c0.4,0,0.7-0.3,0.7-0.7
				C1602.8,195.8,1602.5,195.5,1602.1,195.5z"/>
			<path class="st112" d="M1600.2,195.4c-0.1,0-0.2,0.1-0.2,0.2s0.1,0.2,0.2,0.2s0.2-0.1,0.2-0.2S1600.3,195.4,1600.2,195.4z"/>
			<path class="st112" d="M1687.3,154.4c0,0.2,0.1,0.3,0.3,0.3s0.3-0.1,0.3-0.3c0-0.2-0.1-0.3-0.3-0.3S1687.3,154.2,1687.3,154.4z"
				/>
			<path class="st14" d="M1610.6,123.7c1-0.3,1.9-0.5,2.9-0.8c1.3,4.6,2.6,9.2,3.9,13.7c2.1-0.1,4.1-0.3,6.2-0.4
				c-1.4-4.9-2.9-9.8-4.3-14.8c1.3-0.3,2.6-0.7,3.9-1c0-0.1,0-0.2,0-0.3c0-5.4,0-10.9,0-16.3c-6.1-0.3-12.2-0.7-18.3-1.2
				c0,11.6,0,23.3,0,34.9c1.9-0.2,3.9-0.3,5.8-0.4C1610.6,132.6,1610.6,128.2,1610.6,123.7z M1610.6,108.7c2.2,0.1,4.5,0.2,6.7,0.3
				c0,2.5,0,5,0,7.5c-2.2,0.5-4.5,1.1-6.7,1.7C1610.6,114.9,1610.6,111.8,1610.6,108.7z"/>
			<path class="st14" d="M1647.2,135.2c0-10.1,0-20.3,0-30.4c-1.9-0.1-3.9-0.1-5.8-0.2c0,8.6,0,17.1,0,25.7
				c-2.3,0.1-4.5,0.1-6.8,0.2c0-8.7,0-17.4,0-26.1c-1.9-0.1-3.9-0.2-5.8-0.3c0,10.6,0,21.2,0,31.9
				C1635,135.6,1641.1,135.4,1647.2,135.2z"/>
			<path class="st14" d="M1719.7,104.1c-1.9,0.1-3.9,0.2-5.8,0.3c0,8.7,0,17.4,0,26.1c-2.3-0.1-4.5-0.1-6.8-0.2c0-8.6,0-17.1,0-25.7
				c-1.9,0.1-3.9,0.1-5.8,0.2c0,10.1,0,20.3,0,30.4c6.1,0.2,12.2,0.4,18.3,0.7C1719.7,125.3,1719.7,114.7,1719.7,104.1z"/>
			<path class="st14" d="M1665.6,114.6c1.9,0,3.9,0,5.8,0c0-3.2,0-6.4,0-9.6c-6.1,0-12.2-0.1-18.3-0.2c0,10.1,0,20.1,0,30.2
				c6.1-0.1,12.2-0.2,18.3-0.3c0-3.2,0-6.4,0-9.6c-1.9,0-3.9,0-5.8,0c0,1.6,0,3.1,0,4.7c-2.3,0-4.5,0-6.8,0.1c0-6.7,0-13.3,0-20
				c2.3,0,4.5,0,6.8,0.1C1665.6,111.5,1665.6,113.1,1665.6,114.6z"/>
			<path class="st14" d="M1677.2,105.1c0,9.9,0,19.8,0,29.7c1.9,0,3.9,0,5.8,0c0-3.9,0-7.8,0-11.6c1-0.2,1.9-0.4,2.9-0.7
				c1.3,4.1,2.6,8.2,3.9,12.4c2.1,0,4.1,0.1,6.2,0.1c-1.4-4.6-2.9-9.2-4.3-13.8c1.3-0.3,2.6-0.6,3.9-0.9c0-0.1,0-0.2,0-0.3
				c0-5.1,0-10.1,0-15.2c-1.9,0-3.9,0.1-5.8,0.1c0,3.9,0,7.8,0,11.7c-2.3,0.5-4.5,1-6.8,1.6c0-4.4,0-8.8,0-13.2
				C1681.1,105.1,1679.1,105.1,1677.2,105.1z"/>
			<path class="st14" d="M1743.9,119c-4.2-1.1-8.4-2.1-12.5-3.2c0-2.3,0-4.6,0-6.9c2.2-0.1,4.5-0.2,6.7-0.3c0,1.8,0,3.6,0,5.3
				c1.9,0,3.9-0.1,5.8-0.2c0-3.8,0-7.5,0-11.3c-6.1,0.5-12.2,0.9-18.3,1.2c0,5.3,0,10.5,0,15.8c0,0.1,0,0.2,0,0.3
				c4.2,1,8.4,2.1,12.5,3.3c0,2.7,0,5.5,0,8.2c-2.2-0.1-4.5-0.2-6.7-0.3c0-1.7,0-3.5,0-5.2c-1.9,0-3.9-0.1-5.8-0.1c0,3.5,0,7,0,10.5
				c6.1,0.4,12.2,0.8,18.3,1.3C1743.9,131.3,1743.9,125.2,1743.9,119z"/>
			<g>
				<polygon class="st78" points="1643.3,83.9 1643.3,82 1638.7,82 1638.7,85.1 1639.7,84.9 				"/>
				<polygon class="st78" points="1710,83.9 1710,82 1705.4,82 1705.4,85.1 1706.4,84.9 				"/>
				<rect x="1655.6" y="82" class="st78" width="4.6" height="8.5"/>
				<path class="st113" d="M1638.7,89l2.7-0.7l1.6,6h4.2l-1.9-7.1l1.9-0.5v-0.2v-8.5h-12.4v16.3h3.9V89z M1638.7,82h4.6v1.9l-3.6,1
					l-1,0.3V82z"/>
				<path class="st113" d="M1664.1,78.1h-12.4v16.3h12.4V78.1z M1660.2,90.4h-4.6V82h4.6V90.4z"/>
				<polygon class="st113" points="1697.1,90.4 1688.7,90.4 1688.7,88 1694.5,88 1694.5,84.4 1688.7,84.4 1688.7,82 1697.1,82 
					1697.1,78.1 1684.7,78.1 1684.7,94.4 1697.1,94.4 				"/>
				<polygon class="st113" points="1682.4,78.1 1678,78.1 1674.5,85.2 1671,78.1 1666.7,78.1 1674.5,94.1 				"/>
				<path class="st113" d="M1705.4,89l2.7-0.7l1.6,6h4.2l-1.9-7.1l1.9-0.5v-8.7h-12.4v16.3h3.9V89z M1705.4,82h4.6v1.9l-3.6,1
					l-1,0.3V82z"/>
			</g>
			<path class="st112" d="M1744.7,202.7c-0.3-3.5-3.6-5.9-6.9-6.6c-0.2,0-0.4-0.1-0.6-0.1c-0.4-0.1-0.4,0-0.6-0.3
				c-0.3-0.4-0.4-0.8-0.7-1.2c-0.6-0.7-1.5-1.2-2.4-1.5c-0.5-0.1-1-0.2-1.4-0.2c-0.2,0-0.4,0-0.6,0c-0.4,0-0.2,0-0.5-0.4
				c-0.6-0.8-1.3-1.4-2.1-1.9c-0.1-0.1-0.5-0.3-0.6-0.3c-0.3-0.2-0.6-0.3-0.9-0.4c-0.6-0.2-1.3-0.3-1.9-0.4
				c-1.3-0.1-2.5-0.2-3.8,0.1c-0.1-2.5-0.9-5.3-2.6-7.2c-0.9-0.9-2-1.7-3.2-2.2c-1.1-0.5-2.5-1.1-3.8-1c0.3-1.2,0.3-2.5-0.2-3.6
				c-0.3-0.5-0.6-1-1.1-1.4c-0.2-0.2-0.5-0.3-0.7-0.4c-0.1-0.1-0.4-0.1-0.5-0.2c-0.3-0.2-0.2,0-0.2-0.4c0-0.6,0.1-1.2,0.1-1.8
				c0-0.7-0.1-1.3-0.2-2c-0.2-1.4-0.6-2.7-1.2-3.9c-1.2-2.4-2.8-4.3-4.8-6c-1.1-0.9-2.4-1.5-3.7-2c-1.2-0.4-2.4-0.8-3.7-0.9
				c-1.5-0.1-3.1,0.1-4.6,0.3c-1.5,0.2-3.1,0.5-4.4,1.2c-1.3-2.9-4.2-4.9-7.1-6c-3-1.1-6.2-0.9-9.2,0.3c-1.4,0.6-2.8,1.4-4,2.3
				c-0.4,0.3-0.4,0.1-0.8,0c-0.4-0.2-0.8-0.3-1.2-0.4c-0.8-0.2-1.6-0.2-2.4-0.2c-3,0.2-5.4,1.5-7.1,4c-1,1.5-1.5,3.3-1.3,5.2
				c0.1,0.4,0.1,0.9,0.3,1.3c0.1,0.3,0.4,0.8,0.4,1.1c0,0.3-0.4,0.9-0.5,1.2c-0.1,0.4-0.2,0.9-0.3,1.3c-2.9-0.8-6-0.8-8.9,0.1
				c-1.4,0.4-2.7,1-3.9,1.9c-1.1,0.8-2.1,1.7-3,2.7c-1.8,2-3.2,4.6-3.7,7.2c0,0.1,0,0.4-0.1,0.4c0,0-0.4,0-0.5,0
				c-0.4,0-0.8,0.1-1.2,0.2c-0.7,0.1-1.4,0.2-2.1,0.4c-1.4,0.4-2.9,1.1-4,2c-2.6,2.1-4.1,5.4-3.5,8.7c-2.9-0.5-6.2-0.7-8.2,1.8
				c-0.4,0.5-0.8,1.1-1,1.7c-0.1,0.3-0.3,0.7-0.4,1.1c0,0.1,0,0.3-0.1,0.4c-0.1,0.2-0.1,0.2-0.4,0.2c-1.4,0-2.9,0.4-4.2,1
				c-1.2,0.5-2.4,1.6-3.1,2.8c-0.3,0.6-0.6,1.2-0.7,1.8c15.1-1.4,30.4-2.3,45.7-2.8l0.1-0.7h7.8l-0.1,0.5c5.5-0.1,11-0.2,16.5-0.2
				c4.1,0,8.1,0,12.2,0.1l0.1-0.4h7.8l-0.1,0.6C1711.2,200.2,1728,201.2,1744.7,202.7z"/>
			<polygon class="st14" points="1674.5,168.2 1677.7,163.8 1675.9,161.6 1673.1,161.6 1671.4,163.8 			"/>
			<polygon class="st113" points="1668.5,188 1666,187.7 1665.8,189.5 1674.6,190.6 1674.8,188.8 			"/>
			<path class="st113" d="M1677.7,189.4C1677.7,189.4,1677.7,189.4,1677.7,189.4c-0.1-0.1-0.3-0.2-0.4-0.2c-0.2,0-0.3,0-0.5,0.1
				c-0.1,0-0.2,0.1-0.2,0.2c-0.1,0.1-0.2,0.3-0.2,0.4c0,0.2,0,0.3,0.1,0.5c0,0.1,0.1,0.2,0.2,0.2c0,0,0,0,0,0
				c0.1,0.1,0.3,0.2,0.4,0.2c0.2,0,0.4,0,0.6-0.2c0,0,0.1-0.1,0.1-0.1c0.1-0.1,0.2-0.3,0.2-0.4
				C1678,189.8,1677.9,189.6,1677.7,189.4z"/>
			<path class="st113" d="M1680.9,189.8c-0.1-0.1-0.2-0.1-0.3-0.2c-0.1,0-0.1,0-0.2,0c-0.1,0-0.2,0-0.3,0c-0.1,0-0.1,0-0.2,0.1
				c-0.1,0-0.2,0.1-0.2,0.2c-0.1,0.1-0.2,0.3-0.2,0.4c-0.1,0.4,0.3,0.9,0.7,0.9c0.2,0,0.3,0,0.5-0.1c0.1,0,0.2-0.1,0.2-0.2
				c0.1-0.1,0.1-0.2,0.2-0.3c0-0.1,0-0.1,0-0.2C1681.2,190.2,1681.1,189.9,1680.9,189.8z"/>
			<path class="st0" d="M1695.1,193l0.7-5.6l0,0c0-0.4-0.2-0.7-0.6-0.7c-0.3,0-0.6,0.2-0.7,0.6l-0.8-0.1c0-0.4-0.2-0.7-0.6-0.7
				c-0.3,0-0.6,0.2-0.7,0.6l-0.8-0.1c0-0.4-0.2-0.7-0.6-0.7c-0.3,0-0.6,0.2-0.7,0.6l-0.8-0.1c0-0.4-0.2-0.7-0.6-0.7
				c-0.3,0-0.6,0.2-0.7,0.6l0,0l-0.8,6.4l-3.1-0.4l0.7-6l-9.2-1.1c0.8-2.8,1-5.7,0.6-8.6l3.9-2.2v-6.7l-2.5-1.4l-1.9,2.7l1.1,0.7
				v2.9l-2.5,1.4l-2.5-1.4v-2.9l1.1-0.7l-1.9-2.7l-2.5,1.4v6.7l4.4,2.6c0.4,2.6,0.1,5.4-0.7,7.9l-9.3-1.2l-0.7,6l-3.3-0.4l0.8-6.4
				l0,0c0-0.4-0.2-0.7-0.6-0.7h0c-0.3,0-0.6,0.2-0.7,0.6l-0.8-0.1c0-0.4-0.2-0.7-0.6-0.7c-0.3,0-0.6,0.2-0.7,0.6l-0.8-0.1
				c0-0.4-0.2-0.7-0.6-0.7s-0.6,0.2-0.7,0.6l-0.8-0.1c0-0.4-0.2-0.7-0.6-0.7c-0.3,0-0.6,0.2-0.7,0.6l0,0l0,0.2l-1.1,9.3l-1,8.3
				c2.6-0.1,5.2-0.1,7.8-0.2l0.9-7l3.3,0.4l-0.2,1.6l2.1,0.3l-0.2,1.3l17.6,2.2l0.2-1.3l2.1,0.3l0.2-1.6l3.1,0.4l-0.2,1.3l-0.3,2.2
				c2.6,0,5.2,0.1,7.7,0.2L1695.1,193z M1674.6,190.6L1674.6,190.6L1674.6,190.6l-8.8-1.1v0l0,0l0.2-1.8l2.5,0.3l6.3,0.8v0l0,0
				L1674.6,190.6z M1677.9,190.1c0,0.2-0.1,0.3-0.2,0.4c0,0-0.1,0.1-0.1,0.1c-0.2,0.1-0.4,0.2-0.6,0.2c-0.2,0-0.3-0.1-0.4-0.2
				c0,0,0,0,0,0c-0.1-0.1-0.1-0.1-0.2-0.2c-0.1-0.1-0.1-0.3-0.1-0.5c0-0.2,0.1-0.3,0.2-0.4c0.1-0.1,0.2-0.1,0.2-0.2
				c0.1-0.1,0.3-0.1,0.5-0.1s0.3,0.1,0.4,0.2c0,0,0,0,0,0C1677.9,189.6,1678,189.8,1677.9,190.1z M1681.2,190.5c0,0.1,0,0.1,0,0.2
				c0,0.1-0.1,0.2-0.2,0.3c-0.1,0.1-0.2,0.1-0.2,0.2c-0.1,0.1-0.3,0.1-0.5,0.1c-0.4-0.1-0.8-0.5-0.7-0.9c0-0.2,0.1-0.3,0.2-0.4
				c0.1-0.1,0.2-0.1,0.2-0.2c0.1,0,0.1,0,0.2-0.1c0.1,0,0.2,0,0.3,0c0.1,0,0.1,0,0.2,0c0.1,0,0.2,0.1,0.3,0.2
				C1681.1,189.9,1681.2,190.2,1681.2,190.5z"/>
			<path class="st14" d="M1675.1,158.4c-0.2,0-0.4,0-0.5,0c-0.2,0-0.4,0-0.5,0v1.6h1.1V158.4z"/>
			<path class="st14" d="M1671.6,160.9l-1.1-1.1c-0.3,0.2-0.5,0.5-0.8,0.8l1.2,1.2L1671.6,160.9z"/>
			<path class="st14" d="M1679.3,160.6c-0.2-0.3-0.5-0.5-0.8-0.8l-1.1,1.1l0.7,0.9L1679.3,160.6z"/>
			<g>
				<path class="st14" d="M1683.6,216.5c0.2,0,0.3,0.1,0.3,0.3v6.3c0,0.2-0.2,0.3-0.3,0.3h-0.9c-0.2,0-0.3-0.1-0.3-0.3v-0.6
					c-0.4,0.6-1.2,1.1-2.3,1.1c-1.8,0-2.9-1.2-2.9-3v-3.8c0-0.2,0.2-0.3,0.3-0.3h0.9c0.2,0,0.3,0.1,0.3,0.3v3.6
					c0,1.2,0.6,1.9,1.8,1.9c1.2,0,1.9-0.8,1.9-1.9v-3.6c0-0.2,0.2-0.3,0.3-0.3H1683.6 M1671,213c-2.9,0-5.3,2.3-5.3,5.3
					c0,3,2.4,5.3,5.3,5.3c0.5,0,1-0.1,1.4-0.2l0.6,1.5c0.1,0.2,0.2,0.3,0.4,0.3h0.9c0.2,0,0.4-0.1,0.3-0.4l-0.7-1.9
					c1.5-0.9,2.4-2.5,2.4-4.5C1676.3,215.3,1673.9,213,1671,213 M1673.3,221.4l-0.7-1.7c-0.1-0.1-0.2-0.3-0.4-0.3h-0.9
					c-0.2,0-0.4,0.1-0.3,0.4l0.9,2.3c-0.3,0.1-0.6,0.1-0.9,0.1c-2.1,0-3.7-1.7-3.7-3.9c0-2.2,1.5-3.9,3.7-3.9c2.1,0,3.7,1.7,3.7,3.9
					C1674.7,219.6,1674.1,220.7,1673.3,221.4 M1731.8,223.1c0.1,0.2,0,0.3-0.2,0.3h-1c-0.2,0-0.3-0.1-0.4-0.3l-1.8-4.7l-1.8,4.7
					c-0.1,0.2-0.2,0.3-0.4,0.3h-0.9c-0.2,0-0.3-0.1-0.4-0.3l-1.8-4.8l-1.8,4.8c-0.1,0.2-0.2,0.3-0.4,0.3h-0.9
					c-0.2,0-0.3-0.1-0.4-0.3l-1.8-4.8l-1.8,4.8c-0.1,0.2-0.2,0.3-0.4,0.3h-0.9c-0.2,0-0.3-0.1-0.4-0.3l-1.8-4.8l-1.8,4.8
					c-0.1,0.2-0.2,0.3-0.4,0.3h-0.9c-0.2,0-0.3-0.2-0.2-0.3l2.4-6.3c0.1-0.2,0.2-0.3,0.4-0.3h1c0.2,0,0.3,0.1,0.4,0.3l1.7,4.6
					l1.7-4.6c0.1-0.2,0.2-0.3,0.4-0.3h1c0.2,0,0.3,0.1,0.4,0.3l1.7,4.6l1.7-4.6c0.1-0.2,0.2-0.3,0.4-0.3h1c0.2,0,0.3,0.1,0.4,0.3
					l1.7,4.6l1.7-4.6c0.1-0.2,0.2-0.3,0.4-0.3h1c0.2,0,0.3,0.1,0.4,0.3L1731.8,223.1 M1691.8,216.5h-0.9c-0.2,0-0.3,0.1-0.3,0.3v0.6
					c-0.4-0.7-1.3-1.1-2.3-1.1c-1.9,0-3.5,1.5-3.5,3.7c0,2.2,1.6,3.7,3.5,3.7c1,0,1.8-0.5,2.3-1.1v0.6c0,0.2,0.2,0.3,0.3,0.3h0.9
					c0.2,0,0.3-0.1,0.3-0.3v-6.3C1692.2,216.6,1692,216.5,1691.8,216.5 M1688.5,222.2c-1.2,0-2.1-1-2.1-2.3c0-1.3,0.9-2.3,2.1-2.3
					c1.2,0,2.1,1,2.1,2.3C1690.7,221.2,1689.8,222.2,1688.5,222.2 M1702,222.4c0.2,0.2,0,0.4-0.1,0.5c-0.6,0.4-1.4,0.7-2.2,0.7
					c-2.2,0-3.6-1.6-3.6-3.7s1.4-3.7,3.6-3.7c0.9,0,1.6,0.2,2.2,0.7c0.1,0.1,0.2,0.2,0.1,0.5l-0.4,0.6c-0.2,0.2-0.3,0.2-0.5,0.1
					c-0.4-0.2-0.8-0.4-1.3-0.4c-1.3,0-2.1,1-2.1,2.3s0.8,2.3,2.1,2.3c0.5,0,0.9-0.2,1.3-0.4c0.2-0.1,0.3-0.2,0.5,0.1L1702,222.4z
					 M1706,216.3c-2,0-3.6,1.6-3.6,3.7c0,2.1,1.6,3.7,3.6,3.7c2,0,3.6-1.6,3.6-3.7C1709.7,217.9,1708.1,216.3,1706,216.3
					 M1706,222.2c-1.2,0-2.1-1-2.1-2.3c0-1.3,0.9-2.3,2.1-2.3c1.2,0,2.1,1,2.1,2.3C1708.2,221.2,1707.3,222.2,1706,222.2
					 M1694.8,213.2c0.2,0,0.3,0.2,0.3,0.3v9.6c0,0.2-0.1,0.3-0.3,0.3h-0.9c-0.2,0-0.3-0.2-0.3-0.3v-9.6c0-0.2,0.2-0.3,0.3-0.3
					H1694.8"/>
				<g>
					<text transform="matrix(1 0 0 1 1616.7958 220.7605)" class="st112 st126 st127">Presented By</text>
				</g>
			</g>
		</g>
	</g>
</g>
</svg>
